<svg width="761" height="201" viewBox="0 0 761 201" fill="none" xmlns="http://www.w3.org/2000/svg">
<g clip-path="url(#clip0_2020_2)">
<path d="M120.073 94.79C121.813 95.93 123.283 97.28 124.483 98.84C125.743 100.34 126.733 102.2 127.453 104.42C128.233 106.88 128.623 109.37 128.623 111.89C128.683 114.35 128.233 116.66 127.273 118.82C126.373 120.92 124.903 122.78 122.863 124.4C120.883 125.96 118.273 127.07 115.033 127.73C113.293 128.15 111.253 128.48 108.913 128.72C106.573 128.96 104.473 129.08 102.613 129.08C100.273 129.14 97.8427 129.14 95.3227 129.08C92.8627 129.08 90.4627 128.84 88.1227 128.36C87.1027 128.06 86.3527 127.55 85.8727 126.83C85.4527 126.05 85.1527 125.18 84.9727 124.22C84.7327 123.68 84.6127 123.14 84.6127 122.6V71.48C84.6127 69.8 84.9427 68.51 85.6027 67.61C86.3227 66.65 87.2527 65.96 88.3927 65.54C89.5327 65.06 90.8227 64.79 92.2627 64.73C93.7027 64.61 95.2027 64.55 96.7627 64.55C97.9627 64.55 99.1627 64.55 100.363 64.55C101.623 64.49 102.883 64.49 104.143 64.55C106.123 64.61 108.163 64.79 110.263 65.09C112.423 65.33 114.463 65.81 116.383 66.53C117.283 66.83 118.243 67.25 119.263 67.79C120.283 68.27 121.093 68.87 121.693 69.59C123.613 71.33 125.023 73.37 125.923 75.71C126.883 77.99 127.303 80.33 127.183 82.73C127.063 85.07 126.403 87.32 125.203 89.48C124.063 91.64 122.353 93.41 120.073 94.79ZM104.323 118.64C106.183 118.52 108.073 118.31 109.993 118.01C111.913 117.71 113.233 117.14 113.953 116.3C114.733 115.34 115.273 114.23 115.573 112.97C115.933 111.65 116.023 110.33 115.843 109.01C115.723 107.63 115.333 106.34 114.673 105.14C114.073 103.88 113.263 102.89 112.243 102.17C110.863 101.09 109.273 100.4 107.473 100.1C105.673 99.74 103.903 99.56 102.163 99.56C101.323 99.56 100.543 99.59 99.8227 99.65C99.1627 99.65 98.5627 99.74 98.0227 99.92C97.5427 100.04 97.1827 100.31 96.9427 100.73C96.7027 101.15 96.5827 101.78 96.5827 102.62C96.7027 104.18 96.7027 105.74 96.5827 107.3C96.4627 108.86 96.4027 110.36 96.4027 111.8C96.4027 112.64 96.3727 113.57 96.3127 114.59C96.3127 115.55 96.6427 116.36 97.3027 117.02C97.9627 117.68 98.9227 118.13 100.183 118.37C101.443 118.61 102.823 118.7 104.323 118.64ZM106.123 75.44C104.263 75.38 102.703 75.35 101.443 75.35C100.243 75.29 99.2827 75.38 98.5627 75.62C97.9027 75.8 97.4227 76.25 97.1227 76.97C96.8827 77.63 96.7927 78.65 96.8527 80.03C96.8527 81.17 96.8227 82.31 96.7627 83.45C96.7627 84.53 96.7627 85.61 96.7627 86.69C96.7627 87.89 97.1527 88.79 97.9327 89.39C98.7127 89.93 99.6727 90.26 100.813 90.38C102.013 90.5 103.243 90.5 104.503 90.38C105.823 90.26 106.963 90.11 107.923 89.93C110.083 89.57 111.733 88.85 112.873 87.77C114.073 86.63 114.763 84.98 114.943 82.82C115.183 80.12 114.463 78.26 112.783 77.24C111.163 76.16 108.943 75.56 106.123 75.44ZM146.68 120.8C146.62 121.1 146.56 121.4 146.5 121.7C146.5 121.94 146.5 122.21 146.5 122.51L145.96 124.4C145.84 124.64 145.75 124.79 145.69 124.85L145.42 125.39C145.12 126.05 144.58 126.59 143.8 127.01C142.36 127.73 140.83 127.91 139.21 127.55C138.19 127.43 137.38 127.13 136.78 126.65C136.18 126.23 135.76 125.72 135.52 125.12C135.28 124.52 135.1 123.92 134.98 123.32C134.8 122.72 134.71 122.18 134.71 121.7V71.3C134.71 70.88 134.71 70.52 134.71 70.22C134.77 69.86 134.83 69.53 134.89 69.23C134.95 68.81 135.01 68.45 135.07 68.15C135.19 67.85 135.31 67.52 135.43 67.16C135.61 66.56 135.94 66.08 136.42 65.72C137.14 65.18 137.83 64.88 138.49 64.82C138.91 64.7 139.3 64.64 139.66 64.64C140.02 64.58 140.44 64.55 140.92 64.55C141.76 64.55 142.72 64.79 143.8 65.27C144.64 65.75 145.24 66.41 145.6 67.25C146.2 68.45 146.5 69.56 146.5 70.58C146.56 71.18 146.59 72.08 146.59 73.28C146.65 74.48 146.68 75.38 146.68 75.98V76.34C146.8 78.26 146.86 80.12 146.86 81.92C146.86 83.66 146.83 85.58 146.77 87.68C146.77 89.72 146.74 91.7 146.68 93.62C146.68 95.48 146.68 97.34 146.68 99.2V118.1C146.68 118.34 146.68 118.58 146.68 118.82C146.74 119 146.77 119.21 146.77 119.45C146.77 120.05 146.74 120.5 146.68 120.8ZM165.656 87.32C167.636 86.36 169.706 85.67 171.866 85.25C174.026 84.83 176.156 84.74 178.256 84.98C180.416 85.22 182.486 85.79 184.466 86.69C186.506 87.59 188.366 88.85 190.046 90.47C191.426 91.85 192.626 93.53 193.646 95.51C194.666 97.43 195.416 99.32 195.896 101.18C196.916 104.48 197.066 107.81 196.346 111.17C195.626 114.53 194.396 117.65 192.656 120.53C191.816 121.85 190.766 123.05 189.506 124.13C188.306 125.15 187.016 125.99 185.636 126.65C183.836 127.49 181.886 128.06 179.786 128.36C177.686 128.72 175.646 128.81 173.666 128.63C170.066 128.45 166.886 127.55 164.126 125.93C161.426 124.31 159.236 122.24 157.556 119.72C155.936 117.2 154.856 114.35 154.316 111.17C153.836 107.93 154.046 104.63 154.946 101.27C155.906 97.67 157.286 94.76 159.086 92.54C160.946 90.26 163.136 88.52 165.656 87.32ZM168.356 99.38C167.456 100.22 166.766 101.27 166.286 102.53C165.806 103.79 165.506 105.11 165.386 106.49C165.266 107.81 165.356 109.16 165.656 110.54C166.016 111.86 166.556 113.06 167.276 114.14C167.876 115.04 168.956 115.79 170.516 116.39C172.076 116.99 173.696 117.35 175.376 117.47C177.296 117.59 178.976 117.08 180.416 115.94C181.856 114.74 182.936 113.27 183.656 111.53C184.436 109.79 184.796 107.9 184.736 105.86C184.676 103.82 184.136 101.96 183.116 100.28C182.396 99.08 181.376 98.21 180.056 97.67C178.796 97.07 177.446 96.77 176.006 96.77C174.626 96.71 173.246 96.92 171.866 97.4C170.486 97.82 169.316 98.48 168.356 99.38ZM241.318 110.99C241.318 112.91 241.258 114.98 241.138 117.2C241.078 119.42 240.988 121.49 240.868 123.41C240.868 125.21 240.778 127.01 240.598 128.81C240.478 130.37 240.238 132.05 239.878 133.85C239.518 135.71 239.008 137.42 238.348 138.98C237.508 141.02 236.368 142.76 234.928 144.2C233.488 145.7 231.628 146.78 229.348 147.44C227.428 147.92 225.628 148.22 223.948 148.34C222.268 148.52 220.468 148.49 218.548 148.25C217.288 148.07 215.938 147.71 214.498 147.17C213.058 146.69 211.708 146.06 210.448 145.28C209.188 144.5 208.078 143.57 207.118 142.49C206.158 141.47 205.498 140.3 205.138 138.98C204.718 137.36 204.688 135.95 205.048 134.75C205.468 133.55 206.098 132.68 206.938 132.14C207.778 131.6 208.768 131.51 209.908 131.87C211.048 132.23 212.128 133.16 213.148 134.66C213.868 135.74 214.918 136.61 216.298 137.27C217.678 137.93 219.148 138.32 220.708 138.44C222.268 138.56 223.768 138.35 225.208 137.81C226.708 137.33 227.878 136.46 228.718 135.2C229.318 134.3 229.738 133.01 229.978 131.33C230.278 129.65 230.458 128 230.518 126.38C227.458 127.64 224.308 128.12 221.068 127.82C217.888 127.46 214.978 126.47 212.338 124.85C209.758 123.17 207.658 120.95 206.038 118.19C204.478 115.37 203.818 112.19 204.058 108.65C204.238 105.59 204.868 102.71 205.948 100.01C207.088 97.31 208.948 95.06 211.528 93.26C213.628 91.82 215.998 90.89 218.638 90.47C221.278 89.99 223.828 89.75 226.288 89.75C227.728 89.75 229.138 89.75 230.518 89.75C231.958 89.75 233.278 89.93 234.478 90.29C235.678 90.65 236.758 91.25 237.718 92.09C238.678 92.93 239.398 94.16 239.878 95.78C240.658 98.3 241.078 100.79 241.138 103.25C241.258 105.71 241.318 108.29 241.318 110.99ZM223.948 118.46C224.548 118.46 225.118 118.4 225.658 118.28C226.258 118.16 226.828 118.01 227.368 117.83C228.388 117.47 229.138 116.99 229.618 116.39C230.158 115.79 230.518 115.13 230.698 114.41C230.878 113.63 230.938 112.79 230.878 111.89C230.878 110.99 230.878 110.06 230.878 109.1C230.878 108.32 230.848 107.45 230.788 106.49C230.788 105.53 230.728 104.63 230.608 103.79C230.488 102.89 230.308 102.11 230.068 101.45C229.828 100.79 229.468 100.37 228.988 100.19C228.148 99.95 227.188 99.8 226.108 99.74C225.028 99.62 223.948 99.62 222.868 99.74C221.788 99.8 220.738 100.01 219.718 100.37C218.758 100.67 217.948 101.09 217.288 101.63C216.388 102.41 215.698 103.37 215.218 104.51C214.738 105.65 214.438 106.85 214.318 108.11C214.258 109.37 214.348 110.6 214.588 111.8C214.888 113 215.398 114.08 216.118 115.04C216.958 116.24 218.098 117.11 219.538 117.65C220.978 118.19 222.448 118.46 223.948 118.46ZM303.679 65.09C304.819 64.79 305.809 64.76 306.649 65C307.549 65.18 308.299 65.57 308.899 66.17C309.559 66.77 310.039 67.52 310.339 68.42C310.699 69.32 310.879 70.31 310.879 71.39C310.939 74.39 310.939 76.73 310.879 78.41C310.879 80.09 310.879 81.56 310.879 82.82V110.45C310.879 113.69 310.879 116.39 310.879 118.55C310.879 120.71 310.759 122.48 310.519 123.86C310.339 125.18 309.979 126.17 309.439 126.83C308.959 127.49 308.209 127.94 307.189 128.18C306.169 128.48 304.819 128.63 303.139 128.63C301.519 128.63 299.479 128.63 297.019 128.63C290.539 128.63 285.409 127.1 281.629 124.04C277.909 120.98 275.929 116.12 275.689 109.46C275.569 106.58 275.929 103.94 276.769 101.54C277.609 99.14 278.839 97.1 280.459 95.42C282.139 93.68 284.179 92.36 286.579 91.46C289.039 90.5 291.829 90.05 294.949 90.11H299.899V74C299.899 73.04 299.899 72.11 299.899 71.21C299.899 70.25 299.989 69.38 300.169 68.6C300.349 67.76 300.709 67.04 301.249 66.44C301.789 65.84 302.599 65.39 303.679 65.09ZM288.019 115.04C289.279 116.78 291.559 117.74 294.859 117.92C295.519 117.98 296.149 118.01 296.749 118.01C297.349 117.95 297.889 117.86 298.369 117.74C298.909 117.68 299.419 117.59 299.899 117.47V100.82C297.799 100.46 295.879 100.25 294.139 100.19C292.459 100.07 290.779 100.67 289.099 101.99C288.199 102.71 287.509 103.64 287.029 104.78C286.549 105.86 286.279 107.03 286.219 108.29C286.159 109.49 286.279 110.69 286.579 111.89C286.879 113.09 287.359 114.14 288.019 115.04ZM329.748 87.32C331.728 86.36 333.798 85.67 335.958 85.25C338.118 84.83 340.248 84.74 342.348 84.98C344.508 85.22 346.578 85.79 348.558 86.69C350.598 87.59 352.458 88.85 354.138 90.47C355.518 91.85 356.718 93.53 357.738 95.51C358.758 97.43 359.508 99.32 359.988 101.18C361.008 104.48 361.158 107.81 360.438 111.17C359.718 114.53 358.488 117.65 356.748 120.53C355.908 121.85 354.858 123.05 353.598 124.13C352.398 125.15 351.108 125.99 349.728 126.65C347.928 127.49 345.978 128.06 343.878 128.36C341.778 128.72 339.738 128.81 337.758 128.63C334.158 128.45 330.978 127.55 328.218 125.93C325.518 124.31 323.328 122.24 321.648 119.72C320.028 117.2 318.948 114.35 318.408 111.17C317.928 107.93 318.138 104.63 319.038 101.27C319.998 97.67 321.378 94.76 323.178 92.54C325.038 90.26 327.228 88.52 329.748 87.32ZM332.448 99.38C331.548 100.22 330.858 101.27 330.378 102.53C329.898 103.79 329.598 105.11 329.478 106.49C329.358 107.81 329.448 109.16 329.748 110.54C330.108 111.86 330.648 113.06 331.368 114.14C331.968 115.04 333.048 115.79 334.608 116.39C336.168 116.99 337.788 117.35 339.468 117.47C341.388 117.59 343.068 117.08 344.508 115.94C345.948 114.74 347.028 113.27 347.748 111.53C348.528 109.79 348.888 107.9 348.828 105.86C348.768 103.82 348.228 101.96 347.208 100.28C346.488 99.08 345.468 98.21 344.148 97.67C342.888 97.07 341.538 96.77 340.098 96.77C338.718 96.71 337.338 96.92 335.958 97.4C334.578 97.82 333.408 98.48 332.448 99.38Z" fill="white"/>
<path d="M407.012 120.8C406.952 121.1 406.892 121.4 406.832 121.7C406.832 121.94 406.832 122.21 406.832 122.51L406.292 124.4C406.172 124.64 406.082 124.79 406.022 124.85L405.752 125.39C405.452 126.05 404.912 126.59 404.132 127.01C402.692 127.73 401.162 127.91 399.542 127.55C398.522 127.43 397.712 127.13 397.112 126.65C396.512 126.23 396.092 125.72 395.852 125.12C395.612 124.52 395.432 123.92 395.312 123.32C395.132 122.72 395.042 122.18 395.042 121.7V71.3C395.042 70.88 395.042 70.52 395.042 70.22C395.102 69.86 395.162 69.53 395.222 69.23C395.282 68.81 395.342 68.45 395.402 68.15C395.522 67.85 395.642 67.52 395.762 67.16C395.942 66.56 396.272 66.08 396.752 65.72C397.472 65.18 398.162 64.88 398.822 64.82C399.242 64.7 399.632 64.64 399.992 64.64C400.352 64.58 400.772 64.55 401.252 64.55C402.092 64.55 403.052 64.79 404.132 65.27C404.972 65.75 405.572 66.41 405.932 67.25C406.532 68.45 406.832 69.56 406.832 70.58C406.892 71.18 406.922 72.08 406.922 73.28C406.982 74.48 407.012 75.38 407.012 75.98V76.34C407.132 78.26 407.192 80.12 407.192 81.92C407.192 83.66 407.162 85.58 407.102 87.68C407.102 89.72 407.072 91.7 407.012 93.62C407.012 95.48 407.012 97.34 407.012 99.2V118.1C407.012 118.34 407.012 118.58 407.012 118.82C407.072 119 407.102 119.21 407.102 119.45C407.102 120.05 407.072 120.5 407.012 120.8ZM445.518 115.67C446.238 115.49 446.958 115.37 447.678 115.31C448.458 115.25 449.148 115.34 449.748 115.58C450.408 115.82 450.948 116.24 451.368 116.84C451.788 117.38 451.998 118.16 451.998 119.18C451.998 119.9 451.818 120.59 451.458 121.25C451.098 121.91 450.648 122.51 450.108 123.05C449.568 123.59 448.968 124.07 448.308 124.49C447.648 124.85 447.018 125.15 446.418 125.39C444.678 126.17 442.668 126.77 440.388 127.19C438.168 127.61 435.858 127.76 433.458 127.64C430.218 127.52 427.098 126.89 424.098 125.75C421.158 124.55 418.848 122.6 417.168 119.9C415.608 117.26 414.678 114.32 414.378 111.08C414.078 107.84 414.228 104.78 414.828 101.9C415.488 98.42 416.598 95.6 418.158 93.44C419.778 91.22 421.698 89.45 423.918 88.13C426.618 86.57 429.648 85.76 433.008 85.7C436.368 85.64 439.578 86.3 442.638 87.68C444.678 88.58 446.508 89.81 448.128 91.37C449.748 92.87 450.978 94.7 451.818 96.86C452.058 97.4 452.238 98.06 452.358 98.84C452.538 99.62 452.658 100.46 452.718 101.36C452.778 102.2 452.778 103.04 452.718 103.88C452.658 104.72 452.508 105.47 452.268 106.13C451.908 107.21 451.458 108.05 450.918 108.65C450.378 109.25 449.688 109.7 448.848 110C448.008 110.3 446.988 110.51 445.788 110.63C444.648 110.69 443.268 110.75 441.648 110.81C440.208 110.87 438.858 110.9 437.598 110.9C436.338 110.9 435.048 110.9 433.728 110.9C432.408 110.84 431.028 110.81 429.588 110.81C428.208 110.75 426.648 110.69 424.908 110.63C424.728 111.83 424.878 112.88 425.358 113.78C425.898 114.62 426.618 115.34 427.518 115.94C428.418 116.48 429.438 116.9 430.578 117.2C431.718 117.5 432.828 117.68 433.908 117.74C435.948 117.86 437.898 117.71 439.758 117.29C441.618 116.81 443.538 116.27 445.518 115.67ZM441.648 98.21C440.508 96.89 439.308 95.93 438.048 95.33C437.088 94.91 436.068 94.73 434.988 94.79C433.968 94.79 432.978 94.94 432.018 95.24C430.278 95.66 428.808 96.56 427.608 97.94C427.488 98.06 427.278 98.36 426.978 98.84C426.678 99.26 426.378 99.71 426.078 100.19C425.838 100.67 425.658 101.12 425.538 101.54C425.418 101.96 425.478 102.17 425.718 102.17H443.358C443.298 101.33 443.148 100.64 442.908 100.1C442.668 99.5 442.248 98.87 441.648 98.21ZM487.059 110.81C487.719 111.65 488.619 112.73 489.759 114.05C490.959 115.31 492.069 116.66 493.089 118.1C494.169 119.48 495.039 120.86 495.699 122.24C496.359 123.62 496.539 124.82 496.239 125.84C495.759 127.4 494.859 128.3 493.539 128.54C492.219 128.78 490.839 128.54 489.399 127.82C488.379 127.34 487.209 126.5 485.889 125.3C484.569 124.1 483.279 122.84 482.019 121.52C480.819 120.2 479.739 118.97 478.779 117.83C477.819 116.63 477.159 115.79 476.799 115.31C476.799 115.25 476.769 115.22 476.709 115.22C476.709 115.22 476.709 115.19 476.709 115.13C476.289 115.61 475.869 116.15 475.449 116.75C475.029 117.29 474.579 117.83 474.099 118.37C473.499 119.09 472.809 119.96 472.029 120.98C471.309 121.94 470.499 122.9 469.599 123.86C468.759 124.82 467.859 125.72 466.899 126.56C465.999 127.34 465.099 127.91 464.199 128.27C462.999 128.75 461.829 128.66 460.689 128C459.609 127.4 458.919 126.56 458.619 125.48C458.259 124.22 458.349 122.9 458.889 121.52C459.429 120.14 460.149 118.82 461.049 117.56C461.949 116.24 462.909 114.98 463.929 113.78C465.009 112.58 465.879 111.53 466.539 110.63C467.199 109.79 467.769 109.07 468.249 108.47C468.789 107.81 469.299 107.18 469.779 106.58C468.939 105.68 468.039 104.69 467.079 103.61C466.119 102.47 464.769 101 463.029 99.2C462.429 98.54 461.769 97.82 461.049 97.04C460.329 96.2 459.669 95.33 459.069 94.43C458.469 93.53 457.989 92.6 457.629 91.64C457.269 90.68 457.179 89.69 457.359 88.67C457.539 87.77 457.929 87.05 458.529 86.51C459.129 85.91 459.849 85.52 460.689 85.34C461.529 85.1 462.399 85.07 463.299 85.25C464.199 85.43 465.039 85.79 465.819 86.33C467.379 87.47 468.849 88.88 470.229 90.56C471.609 92.24 472.959 93.83 474.279 95.33C474.699 95.87 475.089 96.38 475.449 96.86C475.869 97.28 476.259 97.7 476.619 98.12C476.919 97.64 477.279 97.16 477.699 96.68C478.179 96.2 478.659 95.63 479.139 94.97C480.339 93.53 481.539 92.03 482.739 90.47C483.999 88.91 485.379 87.56 486.879 86.42C487.659 85.82 488.469 85.46 489.309 85.34C490.209 85.16 491.049 85.19 491.829 85.43C492.609 85.61 493.299 85.97 493.899 86.51C494.499 87.05 494.889 87.71 495.069 88.49C495.309 89.45 495.279 90.41 494.979 91.37C494.739 92.33 494.319 93.26 493.719 94.16C493.179 95.06 492.549 95.93 491.829 96.77C491.169 97.55 490.539 98.27 489.939 98.93C488.559 100.43 487.359 101.78 486.339 102.98C485.319 104.18 484.359 105.32 483.459 106.4C483.999 107 484.539 107.66 485.079 108.38C485.679 109.04 486.339 109.85 487.059 110.81ZM528.787 87.5C530.527 88.22 532.117 89.27 533.557 90.65C534.997 91.97 536.227 93.5 537.247 95.24C538.327 96.98 539.137 98.87 539.677 100.91C540.277 102.89 540.577 104.9 540.577 106.94C540.637 110 539.917 112.88 538.417 115.58C536.977 118.28 534.607 120.35 531.307 121.79C528.787 122.81 526.177 123.59 523.477 124.13C520.837 124.61 518.077 124.94 515.197 125.12V141.59C515.197 141.95 515.137 142.28 515.017 142.58C514.957 142.88 514.927 143.18 514.927 143.48C514.807 144.08 514.657 144.62 514.477 145.1C514.357 145.58 514.177 146.09 513.937 146.63C513.697 146.99 513.457 147.32 513.217 147.62C512.977 147.92 512.707 148.22 512.407 148.52C510.967 149.24 509.467 149.39 507.907 148.97C506.947 148.91 506.167 148.61 505.567 148.07C505.027 147.53 504.637 146.96 504.397 146.36C504.157 145.76 503.947 145.07 503.767 144.29C503.707 143.99 503.647 143.69 503.587 143.39C503.587 143.15 503.587 142.88 503.587 142.58V92.45C503.587 92.09 503.587 91.73 503.587 91.37C503.647 90.95 503.707 90.53 503.767 90.11C503.827 89.39 504.007 88.67 504.307 87.95C504.847 86.45 505.957 85.43 507.637 84.89C509.317 84.35 511.207 84.11 513.307 84.17C514.747 84.23 516.217 84.38 517.717 84.62C519.277 84.86 520.747 85.16 522.127 85.52C523.567 85.82 524.857 86.15 525.997 86.51C527.137 86.87 528.067 87.2 528.787 87.5ZM528.967 106.94C529.207 105.26 528.997 103.85 528.337 102.71C527.737 101.51 526.867 100.55 525.727 99.83C524.587 99.05 523.267 98.45 521.767 98.03C520.327 97.61 518.887 97.31 517.447 97.13C517.267 97.07 516.967 97.04 516.547 97.04C516.187 97.04 515.767 97.04 515.287 97.04C515.287 98.96 515.287 100.82 515.287 102.62C515.347 104.36 515.347 106.25 515.287 108.29V114.32C516.667 114.26 518.107 114.11 519.607 113.87C521.167 113.63 522.607 113.24 523.927 112.7C525.247 112.16 526.357 111.44 527.257 110.54C528.217 109.64 528.787 108.44 528.967 106.94Z" fill="#44FF34"/>
<path d="M575.964 65.09C577.104 64.79 578.094 64.76 578.934 65C579.834 65.18 580.584 65.57 581.184 66.17C581.844 66.77 582.324 67.52 582.624 68.42C582.984 69.32 583.164 70.31 583.164 71.39C583.224 74.39 583.224 76.73 583.164 78.41C583.164 80.09 583.164 81.56 583.164 82.82V110.45C583.164 113.69 583.164 116.39 583.164 118.55C583.164 120.71 583.044 122.48 582.804 123.86C582.624 125.18 582.264 126.17 581.724 126.83C581.244 127.49 580.494 127.94 579.474 128.18C578.454 128.48 577.104 128.63 575.424 128.63C573.804 128.63 571.764 128.63 569.304 128.63C562.824 128.63 557.694 127.1 553.914 124.04C550.194 120.98 548.214 116.12 547.974 109.46C547.854 106.58 548.214 103.94 549.054 101.54C549.894 99.14 551.124 97.1 552.744 95.42C554.424 93.68 556.464 92.36 558.864 91.46C561.324 90.5 564.114 90.05 567.234 90.11H572.184V74C572.184 73.04 572.184 72.11 572.184 71.21C572.184 70.25 572.274 69.38 572.454 68.6C572.634 67.76 572.994 67.04 573.534 66.44C574.074 65.84 574.884 65.39 575.964 65.09ZM560.304 115.04C561.564 116.78 563.844 117.74 567.144 117.92C567.804 117.98 568.434 118.01 569.034 118.01C569.634 117.95 570.174 117.86 570.654 117.74C571.194 117.68 571.704 117.59 572.184 117.47V100.82C570.084 100.46 568.164 100.25 566.424 100.19C564.744 100.07 563.064 100.67 561.384 101.99C560.484 102.71 559.794 103.64 559.314 104.78C558.834 105.86 558.564 107.03 558.504 108.29C558.444 109.49 558.564 110.69 558.864 111.89C559.164 113.09 559.644 114.14 560.304 115.04ZM621.563 115.67C622.283 115.49 623.003 115.37 623.723 115.31C624.503 115.25 625.193 115.34 625.793 115.58C626.453 115.82 626.993 116.24 627.413 116.84C627.833 117.38 628.043 118.16 628.043 119.18C628.043 119.9 627.863 120.59 627.503 121.25C627.143 121.91 626.693 122.51 626.153 123.05C625.613 123.59 625.013 124.07 624.353 124.49C623.693 124.85 623.063 125.15 622.463 125.39C620.723 126.17 618.713 126.77 616.433 127.19C614.213 127.61 611.903 127.76 609.503 127.64C606.263 127.52 603.143 126.89 600.143 125.75C597.203 124.55 594.893 122.6 593.213 119.9C591.653 117.26 590.723 114.32 590.423 111.08C590.123 107.84 590.273 104.78 590.873 101.9C591.533 98.42 592.643 95.6 594.203 93.44C595.823 91.22 597.743 89.45 599.963 88.13C602.663 86.57 605.693 85.76 609.053 85.7C612.413 85.64 615.623 86.3 618.683 87.68C620.723 88.58 622.553 89.81 624.173 91.37C625.793 92.87 627.023 94.7 627.863 96.86C628.103 97.4 628.283 98.06 628.403 98.84C628.583 99.62 628.703 100.46 628.763 101.36C628.823 102.2 628.823 103.04 628.763 103.88C628.703 104.72 628.553 105.47 628.313 106.13C627.953 107.21 627.503 108.05 626.963 108.65C626.423 109.25 625.733 109.7 624.893 110C624.053 110.3 623.033 110.51 621.833 110.63C620.693 110.69 619.313 110.75 617.693 110.81C616.253 110.87 614.903 110.9 613.643 110.9C612.383 110.9 611.093 110.9 609.773 110.9C608.453 110.84 607.073 110.81 605.633 110.81C604.253 110.75 602.693 110.69 600.953 110.63C600.773 111.83 600.923 112.88 601.403 113.78C601.943 114.62 602.663 115.34 603.563 115.94C604.463 116.48 605.483 116.9 606.623 117.2C607.763 117.5 608.873 117.68 609.953 117.74C611.993 117.86 613.943 117.71 615.803 117.29C617.663 116.81 619.583 116.27 621.563 115.67ZM617.693 98.21C616.553 96.89 615.353 95.93 614.093 95.33C613.133 94.91 612.113 94.73 611.033 94.79C610.013 94.79 609.023 94.94 608.063 95.24C606.323 95.66 604.853 96.56 603.653 97.94C603.533 98.06 603.323 98.36 603.023 98.84C602.723 99.26 602.423 99.71 602.123 100.19C601.883 100.67 601.703 101.12 601.583 101.54C601.463 101.96 601.523 102.17 601.763 102.17H619.403C619.343 101.33 619.193 100.64 618.953 100.1C618.713 99.5 618.293 98.87 617.693 98.21ZM676.088 88.58C676.328 89.3 676.388 90.11 676.268 91.01C676.148 91.91 675.938 92.84 675.638 93.8C675.338 94.7 674.978 95.6 674.558 96.5C674.198 97.34 673.868 98.09 673.568 98.75C672.008 101.93 670.538 105.05 669.158 108.11C667.778 111.17 666.158 114.5 664.298 118.1C663.938 118.82 663.518 119.69 663.038 120.71C662.618 121.67 662.138 122.63 661.598 123.59C661.058 124.49 660.458 125.33 659.798 126.11C659.198 126.89 658.538 127.46 657.818 127.82C657.218 128.18 656.618 128.33 656.018 128.27C655.538 128.39 654.998 128.24 654.398 127.82C653.678 127.46 652.988 126.89 652.328 126.11C651.728 125.33 651.158 124.49 650.618 123.59C650.078 122.63 649.568 121.67 649.088 120.71C648.668 119.69 648.278 118.82 647.918 118.1C647.198 116.72 646.508 115.43 645.848 114.23C645.248 113.03 644.588 111.74 643.868 110.36C643.208 108.92 642.458 107.3 641.618 105.5C640.778 103.64 639.788 101.39 638.648 98.75C638.348 98.03 638.018 97.28 637.658 96.5C637.298 95.72 636.968 94.88 636.668 93.98C636.428 93.08 636.248 92.18 636.128 91.28C636.068 90.32 636.128 89.36 636.308 88.4C636.488 87.5 636.938 86.78 637.658 86.24C638.378 85.7 639.188 85.34 640.088 85.16C640.988 84.98 641.888 85.01 642.788 85.25C643.688 85.43 644.408 85.82 644.948 86.42C645.488 86.96 645.998 87.68 646.478 88.58C646.958 89.48 647.408 90.44 647.828 91.46C648.308 92.42 648.728 93.41 649.088 94.43C649.508 95.39 649.898 96.23 650.258 96.95C651.098 98.69 652.028 100.58 653.048 102.62C654.128 104.66 655.088 106.55 655.928 108.29C656.528 106.91 657.068 105.77 657.548 104.87C658.028 103.91 658.478 102.98 658.898 102.08C659.378 101.18 659.858 100.19 660.338 99.11C660.878 98.03 661.538 96.65 662.318 94.97C663.038 93.41 663.758 91.88 664.478 90.38C665.258 88.88 666.188 87.56 667.268 86.42C667.808 85.82 668.498 85.43 669.338 85.25C670.178 85.01 671.048 84.98 671.948 85.16C672.848 85.34 673.658 85.73 674.378 86.33C675.158 86.87 675.728 87.62 676.088 88.58Z" fill="#9A34FF"/>
</g>
<defs>
<clipPath id="clip0_2020_2">
<rect width="761" height="201" fill="white"/>
</clipPath>
</defs>
</svg>
