<svg width="512" height="512" viewBox="0 0 512 512" fill="none" xmlns="http://www.w3.org/2000/svg">
<path d="M239.004 308.99C239.004 308.99 232.422 431.11 317.057 432.006C401.692 432.902 391.549 308.997 391.549 308.997" stroke="#58FF49" stroke-width="28"/>
<circle cx="151.004" cy="232" r="25" fill="#58FF49"/>
<circle cx="297.004" cy="232" r="25" fill="#58FF49"/>
<path d="M126 309H391" stroke="#58FF49" stroke-width="30" stroke-linecap="round"/>
<path d="M308.015 398C308.015 402.971 312.044 407 317.015 407C321.985 407 326.015 402.971 326.015 398H308.015ZM308.015 324V398H326.015V324H308.015Z" fill="#58FF49"/>
<path d="M103.077 146.64C103.033 146.863 102.988 147.087 102.943 147.31C102.943 147.489 102.943 147.69 102.943 147.913L102.541 149.32C102.452 149.499 102.385 149.61 102.34 149.655L102.139 150.057C101.916 150.548 101.514 150.95 100.933 151.263C99.8613 151.799 98.7223 151.933 97.5163 151.665C96.757 151.576 96.154 151.352 95.7073 150.995C95.2607 150.682 94.948 150.303 94.7693 149.856C94.5907 149.409 94.4567 148.963 94.3673 148.516C94.2333 148.069 94.1663 147.667 94.1663 147.31V109.79C94.1663 109.477 94.1663 109.209 94.1663 108.986C94.211 108.718 94.2557 108.472 94.3003 108.249C94.345 107.936 94.3897 107.668 94.4343 107.445C94.5237 107.222 94.613 106.976 94.7023 106.708C94.8363 106.261 95.082 105.904 95.4393 105.636C95.9753 105.234 96.489 105.011 96.9803 104.966C97.293 104.877 97.5833 104.832 97.8513 104.832C98.1193 104.787 98.432 104.765 98.7893 104.765C99.4147 104.765 100.129 104.944 100.933 105.301C101.559 105.658 102.005 106.15 102.273 106.775C102.72 107.668 102.943 108.495 102.943 109.254C102.988 109.701 103.01 110.371 103.01 111.264C103.055 112.157 103.077 112.827 103.077 113.274V113.542C103.167 114.971 103.211 116.356 103.211 117.696C103.211 118.991 103.189 120.421 103.144 121.984C103.144 123.503 103.122 124.977 103.077 126.406C103.077 127.791 103.077 129.175 103.077 130.56V144.63C103.077 144.809 103.077 144.987 103.077 145.166C103.122 145.3 103.144 145.456 103.144 145.635C103.144 146.082 103.122 146.417 103.077 146.64ZM131.743 142.821C132.279 142.687 132.815 142.598 133.351 142.553C133.932 142.508 134.445 142.575 134.892 142.754C135.383 142.933 135.785 143.245 136.098 143.692C136.411 144.094 136.567 144.675 136.567 145.434C136.567 145.97 136.433 146.484 136.165 146.975C135.897 147.466 135.562 147.913 135.16 148.315C134.758 148.717 134.311 149.074 133.82 149.387C133.329 149.655 132.86 149.878 132.413 150.057C131.118 150.638 129.621 151.084 127.924 151.397C126.271 151.71 124.552 151.821 122.765 151.732C120.353 151.643 118.03 151.174 115.797 150.325C113.608 149.432 111.889 147.98 110.638 145.97C109.477 144.005 108.784 141.816 108.561 139.404C108.338 136.992 108.449 134.714 108.896 132.57C109.387 129.979 110.214 127.88 111.375 126.272C112.581 124.619 114.01 123.302 115.663 122.319C117.673 121.158 119.929 120.555 122.43 120.51C124.931 120.465 127.321 120.957 129.599 121.984C131.118 122.654 132.48 123.57 133.686 124.731C134.892 125.848 135.808 127.21 136.433 128.818C136.612 129.22 136.746 129.711 136.835 130.292C136.969 130.873 137.058 131.498 137.103 132.168C137.148 132.793 137.148 133.419 137.103 134.044C137.058 134.669 136.947 135.228 136.768 135.719C136.5 136.523 136.165 137.148 135.763 137.595C135.361 138.042 134.847 138.377 134.222 138.6C133.597 138.823 132.837 138.98 131.944 139.069C131.095 139.114 130.068 139.158 128.862 139.203C127.79 139.248 126.785 139.27 125.847 139.27C124.909 139.27 123.949 139.27 122.966 139.27C121.983 139.225 120.956 139.203 119.884 139.203C118.857 139.158 117.695 139.114 116.4 139.069C116.266 139.962 116.378 140.744 116.735 141.414C117.137 142.039 117.673 142.575 118.343 143.022C119.013 143.424 119.772 143.737 120.621 143.96C121.47 144.183 122.296 144.317 123.1 144.362C124.619 144.451 126.07 144.34 127.455 144.027C128.84 143.67 130.269 143.268 131.743 142.821ZM128.862 129.823C128.013 128.84 127.12 128.126 126.182 127.679C125.467 127.366 124.708 127.232 123.904 127.277C123.145 127.277 122.408 127.389 121.693 127.612C120.398 127.925 119.303 128.595 118.41 129.622C118.321 129.711 118.164 129.935 117.941 130.292C117.718 130.605 117.494 130.94 117.271 131.297C117.092 131.654 116.958 131.989 116.869 132.302C116.78 132.615 116.824 132.771 117.003 132.771H130.135C130.09 132.146 129.979 131.632 129.8 131.23C129.621 130.783 129.309 130.314 128.862 129.823ZM162.668 139.203C163.159 139.828 163.829 140.632 164.678 141.615C165.571 142.553 166.397 143.558 167.157 144.63C167.961 145.657 168.608 146.685 169.1 147.712C169.591 148.739 169.725 149.633 169.502 150.392C169.144 151.553 168.474 152.223 167.492 152.402C166.509 152.581 165.482 152.402 164.41 151.866C163.65 151.509 162.779 150.883 161.797 149.99C160.814 149.097 159.854 148.159 158.916 147.176C158.022 146.193 157.218 145.278 156.504 144.429C155.789 143.536 155.298 142.91 155.03 142.553C155.03 142.508 155.007 142.486 154.963 142.486C154.963 142.486 154.963 142.464 154.963 142.419C154.65 142.776 154.337 143.178 154.025 143.625C153.712 144.027 153.377 144.429 153.02 144.831C152.573 145.367 152.059 146.015 151.479 146.774C150.943 147.489 150.34 148.203 149.67 148.918C149.044 149.633 148.374 150.303 147.66 150.928C146.99 151.509 146.32 151.933 145.65 152.201C144.756 152.558 143.885 152.491 143.037 152C142.233 151.553 141.719 150.928 141.496 150.124C141.228 149.186 141.295 148.203 141.697 147.176C142.099 146.149 142.635 145.166 143.305 144.228C143.975 143.245 144.689 142.307 145.449 141.414C146.253 140.521 146.9 139.739 147.392 139.069C147.883 138.444 148.307 137.908 148.665 137.461C149.067 136.97 149.446 136.501 149.804 136.054C149.178 135.384 148.508 134.647 147.794 133.843C147.079 132.994 146.074 131.9 144.779 130.56C144.332 130.069 143.841 129.533 143.305 128.952C142.769 128.327 142.277 127.679 141.831 127.009C141.384 126.339 141.027 125.647 140.759 124.932C140.491 124.217 140.424 123.48 140.558 122.721C140.692 122.051 140.982 121.515 141.429 121.113C141.875 120.666 142.411 120.376 143.037 120.242C143.662 120.063 144.31 120.041 144.98 120.175C145.65 120.309 146.275 120.577 146.856 120.979C148.017 121.828 149.111 122.877 150.139 124.128C151.166 125.379 152.171 126.562 153.154 127.679C153.466 128.081 153.757 128.461 154.025 128.818C154.337 129.131 154.628 129.443 154.896 129.756C155.119 129.399 155.387 129.041 155.7 128.684C156.057 128.327 156.414 127.902 156.772 127.411C157.665 126.339 158.558 125.222 159.452 124.061C160.39 122.9 161.417 121.895 162.534 121.046C163.114 120.599 163.717 120.331 164.343 120.242C165.013 120.108 165.638 120.13 166.219 120.309C166.799 120.443 167.313 120.711 167.76 121.113C168.206 121.515 168.497 122.006 168.631 122.587C168.809 123.302 168.787 124.016 168.564 124.731C168.385 125.446 168.072 126.138 167.626 126.808C167.224 127.478 166.755 128.126 166.219 128.751C165.727 129.332 165.258 129.868 164.812 130.359C163.784 131.476 162.891 132.481 162.132 133.374C161.372 134.267 160.658 135.116 159.988 135.92C160.39 136.367 160.792 136.858 161.194 137.394C161.64 137.885 162.132 138.488 162.668 139.203ZM193.732 121.85C195.027 122.386 196.211 123.168 197.283 124.195C198.355 125.178 199.271 126.317 200.03 127.612C200.834 128.907 201.437 130.314 201.839 131.833C202.286 133.307 202.509 134.803 202.509 136.322C202.554 138.6 202.018 140.744 200.901 142.754C199.829 144.764 198.065 146.305 195.608 147.377C193.732 148.136 191.789 148.717 189.779 149.119C187.814 149.476 185.759 149.722 183.615 149.856V162.117C183.615 162.385 183.57 162.631 183.481 162.854C183.436 163.077 183.414 163.301 183.414 163.524C183.325 163.971 183.213 164.373 183.079 164.73C182.99 165.087 182.856 165.467 182.677 165.869C182.498 166.137 182.32 166.383 182.141 166.606C181.962 166.829 181.761 167.053 181.538 167.276C180.466 167.812 179.349 167.924 178.188 167.611C177.473 167.566 176.893 167.343 176.446 166.941C176.044 166.539 175.754 166.115 175.575 165.668C175.396 165.221 175.24 164.708 175.106 164.127C175.061 163.904 175.017 163.68 174.972 163.457C174.972 163.278 174.972 163.077 174.972 162.854V125.535C174.972 125.267 174.972 124.999 174.972 124.731C175.017 124.418 175.061 124.106 175.106 123.793C175.151 123.257 175.285 122.721 175.508 122.185C175.91 121.068 176.736 120.309 177.987 119.907C179.238 119.505 180.645 119.326 182.208 119.371C183.28 119.416 184.374 119.527 185.491 119.706C186.652 119.885 187.747 120.108 188.774 120.376C189.846 120.599 190.806 120.845 191.655 121.113C192.504 121.381 193.196 121.627 193.732 121.85ZM193.866 136.322C194.045 135.071 193.888 134.022 193.397 133.173C192.95 132.28 192.303 131.565 191.454 131.029C190.605 130.448 189.623 130.002 188.506 129.689C187.434 129.376 186.362 129.153 185.29 129.019C185.156 128.974 184.933 128.952 184.62 128.952C184.352 128.952 184.039 128.952 183.682 128.952C183.682 130.381 183.682 131.766 183.682 133.106C183.727 134.401 183.727 135.808 183.682 137.327V141.816C184.709 141.771 185.781 141.66 186.898 141.481C188.059 141.302 189.131 141.012 190.114 140.61C191.097 140.208 191.923 139.672 192.593 139.002C193.308 138.332 193.732 137.439 193.866 136.322ZM228.853 105.167C229.701 104.944 230.438 104.921 231.064 105.1C231.734 105.234 232.292 105.524 232.739 105.971C233.23 106.418 233.587 106.976 233.811 107.646C234.079 108.316 234.213 109.053 234.213 109.857C234.257 112.09 234.257 113.832 234.213 115.083C234.213 116.334 234.213 117.428 234.213 118.366V138.935C234.213 141.347 234.213 143.357 234.213 144.965C234.213 146.573 234.123 147.891 233.945 148.918C233.811 149.901 233.543 150.638 233.141 151.129C232.783 151.62 232.225 151.955 231.466 152.134C230.706 152.357 229.701 152.469 228.451 152.469C227.245 152.469 225.726 152.469 223.895 152.469C219.071 152.469 215.252 151.33 212.438 149.052C209.668 146.774 208.194 143.156 208.016 138.198C207.926 136.054 208.194 134.089 208.82 132.302C209.445 130.515 210.361 128.997 211.567 127.746C212.817 126.451 214.336 125.468 216.123 124.798C217.954 124.083 220.031 123.748 222.354 123.793H226.039V111.8C226.039 111.085 226.039 110.393 226.039 109.723C226.039 109.008 226.106 108.361 226.24 107.78C226.374 107.155 226.642 106.619 227.044 106.172C227.446 105.725 228.049 105.39 228.853 105.167ZM217.195 142.352C218.133 143.647 219.83 144.362 222.287 144.496C222.778 144.541 223.247 144.563 223.694 144.563C224.14 144.518 224.542 144.451 224.9 144.362C225.302 144.317 225.681 144.25 226.039 144.161V131.766C224.475 131.498 223.046 131.342 221.751 131.297C220.5 131.208 219.249 131.654 217.999 132.637C217.329 133.173 216.815 133.865 216.458 134.714C216.1 135.518 215.899 136.389 215.855 137.327C215.81 138.22 215.899 139.114 216.123 140.007C216.346 140.9 216.703 141.682 217.195 142.352ZM262.799 142.821C263.335 142.687 263.871 142.598 264.407 142.553C264.987 142.508 265.501 142.575 265.948 142.754C266.439 142.933 266.841 143.245 267.154 143.692C267.466 144.094 267.623 144.675 267.623 145.434C267.623 145.97 267.489 146.484 267.221 146.975C266.953 147.466 266.618 147.913 266.216 148.315C265.814 148.717 265.367 149.074 264.876 149.387C264.384 149.655 263.915 149.878 263.469 150.057C262.173 150.638 260.677 151.084 258.98 151.397C257.327 151.71 255.607 151.821 253.821 151.732C251.409 151.643 249.086 151.174 246.853 150.325C244.664 149.432 242.944 147.98 241.694 145.97C240.532 144.005 239.84 141.816 239.617 139.404C239.393 136.992 239.505 134.714 239.952 132.57C240.443 129.979 241.269 127.88 242.431 126.272C243.637 124.619 245.066 123.302 246.719 122.319C248.729 121.158 250.984 120.555 253.486 120.51C255.987 120.465 258.377 120.957 260.655 121.984C262.173 122.654 263.536 123.57 264.742 124.731C265.948 125.848 266.863 127.21 267.489 128.818C267.667 129.22 267.801 129.711 267.891 130.292C268.025 130.873 268.114 131.498 268.159 132.168C268.203 132.793 268.203 133.419 268.159 134.044C268.114 134.669 268.002 135.228 267.824 135.719C267.556 136.523 267.221 137.148 266.819 137.595C266.417 138.042 265.903 138.377 265.278 138.6C264.652 138.823 263.893 138.98 263 139.069C262.151 139.114 261.124 139.158 259.918 139.203C258.846 139.248 257.841 139.27 256.903 139.27C255.965 139.27 255.004 139.27 254.022 139.27C253.039 139.225 252.012 139.203 250.94 139.203C249.912 139.158 248.751 139.114 247.456 139.069C247.322 139.962 247.433 140.744 247.791 141.414C248.193 142.039 248.729 142.575 249.399 143.022C250.069 143.424 250.828 143.737 251.677 143.96C252.525 144.183 253.352 144.317 254.156 144.362C255.674 144.451 257.126 144.34 258.511 144.027C259.895 143.67 261.325 143.268 262.799 142.821ZM259.918 129.823C259.069 128.84 258.176 128.126 257.238 127.679C256.523 127.366 255.764 127.232 254.96 127.277C254.2 127.277 253.463 127.389 252.749 127.612C251.453 127.925 250.359 128.595 249.466 129.622C249.376 129.711 249.22 129.935 248.997 130.292C248.773 130.605 248.55 130.94 248.327 131.297C248.148 131.654 248.014 131.989 247.925 132.302C247.835 132.615 247.88 132.771 248.059 132.771H261.191C261.146 132.146 261.034 131.632 260.856 131.23C260.677 130.783 260.364 130.314 259.918 129.823ZM303.39 122.654C303.568 123.19 303.613 123.793 303.524 124.463C303.434 125.133 303.278 125.825 303.055 126.54C302.831 127.21 302.563 127.88 302.251 128.55C301.983 129.175 301.737 129.734 301.514 130.225C300.352 132.592 299.258 134.915 298.231 137.193C297.203 139.471 295.997 141.95 294.613 144.63C294.345 145.166 294.032 145.814 293.675 146.573C293.362 147.288 293.005 148.002 292.603 148.717C292.201 149.387 291.754 150.012 291.263 150.593C290.816 151.174 290.325 151.598 289.789 151.866C289.342 152.134 288.895 152.246 288.449 152.201C288.091 152.29 287.689 152.179 287.243 151.866C286.707 151.598 286.193 151.174 285.702 150.593C285.255 150.012 284.831 149.387 284.429 148.717C284.027 148.002 283.647 147.288 283.29 146.573C282.977 145.814 282.687 145.166 282.419 144.63C281.883 143.603 281.369 142.642 280.878 141.749C280.431 140.856 279.94 139.895 279.404 138.868C278.912 137.796 278.354 136.59 277.729 135.25C277.103 133.865 276.366 132.19 275.518 130.225C275.294 129.689 275.049 129.131 274.781 128.55C274.513 127.969 274.267 127.344 274.044 126.674C273.865 126.004 273.731 125.334 273.642 124.664C273.597 123.949 273.642 123.235 273.776 122.52C273.91 121.85 274.245 121.314 274.781 120.912C275.317 120.51 275.92 120.242 276.59 120.108C277.26 119.974 277.93 119.996 278.6 120.175C279.27 120.309 279.806 120.599 280.208 121.046C280.61 121.448 280.989 121.984 281.347 122.654C281.704 123.324 282.039 124.039 282.352 124.798C282.709 125.513 283.022 126.25 283.29 127.009C283.602 127.724 283.893 128.349 284.161 128.885C284.786 130.18 285.478 131.587 286.238 133.106C287.042 134.625 287.756 136.032 288.382 137.327C288.828 136.3 289.23 135.451 289.588 134.781C289.945 134.066 290.28 133.374 290.593 132.704C290.95 132.034 291.307 131.297 291.665 130.493C292.067 129.689 292.558 128.662 293.139 127.411C293.675 126.25 294.211 125.111 294.747 123.994C295.327 122.877 296.02 121.895 296.824 121.046C297.226 120.599 297.739 120.309 298.365 120.175C298.99 119.996 299.638 119.974 300.308 120.108C300.978 120.242 301.581 120.532 302.117 120.979C302.697 121.381 303.122 121.939 303.39 122.654Z" fill="#44FF34"/>
<path d="M317.213 152C317.213 153.161 316.789 154.144 315.94 154.948C315.136 155.797 314.153 156.221 312.992 156.221C311.831 156.221 310.826 155.797 309.977 154.948C309.173 154.144 308.771 153.161 308.771 152C308.771 150.839 309.173 149.834 309.977 148.985C310.826 148.136 311.831 147.712 312.992 147.712C314.153 147.712 315.136 148.136 315.94 148.985C316.789 149.834 317.213 150.839 317.213 152ZM344.562 139.203C345.053 139.828 345.723 140.632 346.572 141.615C347.465 142.553 348.292 143.558 349.051 144.63C349.855 145.657 350.503 146.685 350.994 147.712C351.485 148.739 351.619 149.633 351.396 150.392C351.039 151.553 350.369 152.223 349.386 152.402C348.403 152.581 347.376 152.402 346.304 151.866C345.545 151.509 344.674 150.883 343.691 149.99C342.708 149.097 341.748 148.159 340.81 147.176C339.917 146.193 339.113 145.278 338.398 144.429C337.683 143.536 337.192 142.91 336.924 142.553C336.924 142.508 336.902 142.486 336.857 142.486C336.857 142.486 336.857 142.464 336.857 142.419C336.544 142.776 336.232 143.178 335.919 143.625C335.606 144.027 335.271 144.429 334.914 144.831C334.467 145.367 333.954 146.015 333.373 146.774C332.837 147.489 332.234 148.203 331.564 148.918C330.939 149.633 330.269 150.303 329.554 150.928C328.884 151.509 328.214 151.933 327.544 152.201C326.651 152.558 325.78 152.491 324.931 152C324.127 151.553 323.613 150.928 323.39 150.124C323.122 149.186 323.189 148.203 323.591 147.176C323.993 146.149 324.529 145.166 325.199 144.228C325.869 143.245 326.584 142.307 327.343 141.414C328.147 140.521 328.795 139.739 329.286 139.069C329.777 138.444 330.202 137.908 330.559 137.461C330.961 136.97 331.341 136.501 331.698 136.054C331.073 135.384 330.403 134.647 329.688 133.843C328.973 132.994 327.968 131.9 326.673 130.56C326.226 130.069 325.735 129.533 325.199 128.952C324.663 128.327 324.172 127.679 323.725 127.009C323.278 126.339 322.921 125.647 322.653 124.932C322.385 124.217 322.318 123.48 322.452 122.721C322.586 122.051 322.876 121.515 323.323 121.113C323.77 120.666 324.306 120.376 324.931 120.242C325.556 120.063 326.204 120.041 326.874 120.175C327.544 120.309 328.169 120.577 328.75 120.979C329.911 121.828 331.006 122.877 332.033 124.128C333.06 125.379 334.065 126.562 335.048 127.679C335.361 128.081 335.651 128.461 335.919 128.818C336.232 129.131 336.522 129.443 336.79 129.756C337.013 129.399 337.281 129.041 337.594 128.684C337.951 128.327 338.309 127.902 338.666 127.411C339.559 126.339 340.453 125.222 341.346 124.061C342.284 122.9 343.311 121.895 344.428 121.046C345.009 120.599 345.612 120.331 346.237 120.242C346.907 120.108 347.532 120.13 348.113 120.309C348.694 120.443 349.207 120.711 349.654 121.113C350.101 121.515 350.391 122.006 350.525 122.587C350.704 123.302 350.681 124.016 350.458 124.731C350.279 125.446 349.967 126.138 349.52 126.808C349.118 127.478 348.649 128.126 348.113 128.751C347.622 129.332 347.153 129.868 346.706 130.359C345.679 131.476 344.785 132.481 344.026 133.374C343.267 134.267 342.552 135.116 341.882 135.92C342.284 136.367 342.686 136.858 343.088 137.394C343.535 137.885 344.026 138.488 344.562 139.203ZM385.591 122.118C385.993 122.743 386.172 123.413 386.127 124.128C386.127 125.155 385.949 126.049 385.591 126.808C385.502 127.031 385.368 127.322 385.189 127.679C385.055 128.036 384.899 128.416 384.72 128.818C384.586 129.22 384.43 129.6 384.251 129.957C384.073 130.314 383.939 130.582 383.849 130.761L383.715 131.096C383.09 132.481 382.487 133.821 381.906 135.116C381.326 136.411 380.678 137.796 379.963 139.27C379.249 140.699 378.556 142.106 377.886 143.491C377.261 144.831 376.636 146.149 376.01 147.444C375.832 147.801 375.675 148.159 375.541 148.516C375.407 148.829 375.229 149.164 375.005 149.521L371.789 156.422C371.209 157.583 370.65 158.722 370.114 159.839C369.623 160.956 369.065 162.072 368.439 163.189C368.305 163.412 368.171 163.613 368.037 163.792C367.948 164.015 367.859 164.239 367.769 164.462C367.457 164.998 366.988 165.512 366.362 166.003C365.782 166.539 365.156 166.829 364.486 166.874C363.28 166.963 362.231 166.606 361.337 165.802C360.801 165.489 360.377 165.043 360.064 164.462C359.886 164.06 359.796 163.546 359.796 162.921C359.841 162.653 359.863 162.385 359.863 162.117C359.908 161.894 359.953 161.67 359.997 161.447C360.087 161.224 360.154 161 360.198 160.777C360.243 160.554 360.31 160.375 360.399 160.241C360.533 159.884 360.645 159.705 360.734 159.705L365.625 149.119C365.402 148.628 365.179 148.136 364.955 147.645C364.732 147.109 364.531 146.64 364.352 146.238C363.772 144.853 363.146 143.402 362.476 141.883C361.851 140.32 361.203 138.779 360.533 137.26C359.863 135.697 359.171 134.178 358.456 132.704C357.742 131.23 357.027 129.823 356.312 128.483C356.044 128.036 355.799 127.567 355.575 127.076C355.352 126.54 355.173 126.026 355.039 125.535C354.905 124.999 354.861 124.463 354.905 123.927C354.95 123.391 355.151 122.855 355.508 122.319C355.866 121.649 356.335 121.18 356.915 120.912C357.496 120.599 358.099 120.465 358.724 120.51C359.394 120.51 360.02 120.644 360.6 120.912C361.181 121.18 361.65 121.537 362.007 121.984C362.767 122.788 363.37 123.681 363.816 124.664C364.263 125.647 364.687 126.652 365.089 127.679C365.938 129.466 366.809 131.342 367.702 133.307C368.596 135.272 369.489 137.193 370.382 139.069L373.866 131.699C374.224 130.984 374.536 130.292 374.804 129.622C375.117 128.952 375.43 128.304 375.742 127.679C376.1 126.92 376.435 126.138 376.747 125.334C377.105 124.53 377.507 123.793 377.953 123.123C378.043 122.944 378.132 122.788 378.221 122.654C378.311 122.52 378.4 122.364 378.489 122.185C378.891 121.649 379.249 121.225 379.561 120.912C379.785 120.733 379.963 120.599 380.097 120.51C380.276 120.376 380.477 120.287 380.7 120.242C381.013 120.153 381.303 120.108 381.571 120.108C381.884 120.063 382.174 120.063 382.442 120.108C382.889 120.242 383.425 120.443 384.05 120.711C384.72 120.979 385.234 121.448 385.591 122.118ZM409.902 143.96C410.572 143.96 411.309 143.982 412.113 144.027C412.962 144.027 413.766 144.094 414.525 144.228C415.329 144.317 416.044 144.496 416.669 144.764C417.339 145.032 417.808 145.389 418.076 145.836C418.746 146.997 418.947 148.047 418.679 148.985C418.456 149.878 417.965 150.571 417.205 151.062C416.401 151.643 415.463 152.022 414.391 152.201C413.319 152.424 412.337 152.514 411.443 152.469C409.612 152.38 407.669 152.357 405.614 152.402C403.56 152.491 401.617 152.558 399.785 152.603C399.16 152.603 398.49 152.603 397.775 152.603C397.105 152.648 396.458 152.603 395.832 152.469C395.207 152.38 394.604 152.179 394.023 151.866C393.487 151.553 393.018 151.062 392.616 150.392C392.08 149.543 391.946 148.695 392.214 147.846C392.527 146.953 392.884 146.126 393.286 145.367C393.912 144.25 394.649 143.156 395.497 142.084C396.391 141.012 397.15 140.096 397.775 139.337L406.15 128.349L399.383 128.55C398.847 128.55 398.267 128.55 397.641 128.55C397.061 128.55 396.458 128.505 395.832 128.416C395.207 128.282 394.626 128.126 394.09 127.947C393.554 127.768 393.085 127.5 392.683 127.143C392.281 126.741 391.991 126.294 391.812 125.803C391.634 125.267 391.544 124.731 391.544 124.195C391.589 123.659 391.701 123.145 391.879 122.654C392.103 122.118 392.393 121.649 392.75 121.247C393.018 120.979 393.353 120.756 393.755 120.577C394.202 120.398 394.693 120.264 395.229 120.175C395.765 120.086 396.301 120.041 396.837 120.041C397.418 119.996 397.954 119.974 398.445 119.974C399.428 119.974 400.522 119.974 401.728 119.974C402.934 119.974 404.096 119.974 405.212 119.974C406.374 119.929 407.446 119.907 408.428 119.907C409.456 119.862 410.282 119.84 410.907 119.84C411.711 119.84 412.515 119.818 413.319 119.773C414.123 119.728 414.883 119.795 415.597 119.974C416.312 120.153 416.915 120.488 417.406 120.979C417.942 121.426 418.277 122.163 418.411 123.19C418.501 123.86 418.456 124.53 418.277 125.2C418.143 125.825 417.898 126.451 417.54 127.076C417.228 127.657 416.848 128.26 416.401 128.885C415.955 129.466 415.508 130.024 415.061 130.56L404.676 143.96H409.902Z" fill="#9A34FF"/>
</svg>
