<svg width="596" height="141" viewBox="0 0 596 141" fill="none" xmlns="http://www.w3.org/2000/svg">
<g clip-path="url(#clip0_2026_2)">
<path d="M525.505 0H70.4946C31.5615 0 0 31.5639 0 70.5C0 109.436 31.5615 141 70.4946 141H525.505C564.438 141 596 109.436 596 70.5C596 31.5639 564.438 0 525.505 0Z" fill="white"/>
<circle cx="72" cy="71" r="59" fill="black"/>
<path d="M66.579 67.5985C66.579 67.5985 64.7979 100.644 87.7002 100.887C110.602 101.129 107.858 67.6006 107.858 67.6006" stroke="#44FF34" stroke-width="7"/>
<circle cx="43" cy="47" r="6.5" fill="#44FF34" stroke="#44FF34"/>
<path d="M88.5 47C88.5 50.6254 85.7795 53.5 82.5 53.5C79.2205 53.5 76.5 50.6254 76.5 47C76.5 43.3746 79.2205 40.5 82.5 40.5C85.7795 40.5 88.5 43.3746 88.5 47Z" fill="#44FF34" stroke="#44FF34"/>
<path d="M36 68H108" stroke="#44FF34" stroke-width="7" stroke-linecap="round"/>
<path d="M85.1889 91.6574C85.1738 93.0381 86.2807 94.1695 87.6614 94.1846C89.042 94.1998 90.1735 93.0928 90.1886 91.7122L85.1889 91.6574ZM85.4555 67.3033L85.1889 91.6574L90.1886 91.7122L90.4552 67.3581L85.4555 67.3033Z" fill="#44FF34"/>
<path d="M187.628 87.24C187.58 87.48 187.532 87.72 187.484 87.96C187.484 88.152 187.484 88.368 187.484 88.608L187.052 90.12C186.956 90.312 186.884 90.432 186.836 90.48L186.62 90.912C186.38 91.44 185.948 91.872 185.324 92.208C184.172 92.784 182.948 92.928 181.652 92.64C180.836 92.544 180.188 92.304 179.708 91.92C179.228 91.584 178.892 91.176 178.7 90.696C178.508 90.216 178.364 89.736 178.268 89.256C178.124 88.776 178.052 88.344 178.052 87.96V47.64C178.052 47.304 178.052 47.016 178.052 46.776C178.1 46.488 178.148 46.224 178.196 45.984C178.244 45.648 178.292 45.36 178.34 45.12C178.436 44.88 178.532 44.616 178.628 44.328C178.772 43.848 179.036 43.464 179.42 43.176C179.996 42.744 180.548 42.504 181.076 42.456C181.412 42.36 181.724 42.312 182.012 42.312C182.3 42.264 182.636 42.24 183.02 42.24C183.692 42.24 184.46 42.432 185.324 42.816C185.996 43.2 186.476 43.728 186.764 44.4C187.244 45.36 187.484 46.248 187.484 47.064C187.532 47.544 187.556 48.264 187.556 49.224C187.604 50.184 187.628 50.904 187.628 51.384V51.672C187.724 53.208 187.772 54.696 187.772 56.136C187.772 57.528 187.748 59.064 187.7 60.744C187.7 62.376 187.676 63.96 187.628 65.496C187.628 66.984 187.628 68.472 187.628 69.96V85.08C187.628 85.272 187.628 85.464 187.628 85.656C187.676 85.8 187.7 85.968 187.7 86.16C187.7 86.64 187.676 87 187.628 87.24ZM218.433 83.136C219.009 82.992 219.585 82.896 220.161 82.848C220.785 82.8 221.337 82.872 221.817 83.064C222.345 83.256 222.777 83.592 223.113 84.072C223.449 84.504 223.617 85.128 223.617 85.944C223.617 86.52 223.473 87.072 223.185 87.6C222.897 88.128 222.537 88.608 222.105 89.04C221.673 89.472 221.193 89.856 220.665 90.192C220.137 90.48 219.633 90.72 219.153 90.912C217.761 91.536 216.153 92.016 214.329 92.352C212.553 92.688 210.705 92.808 208.785 92.712C206.193 92.616 203.697 92.112 201.297 91.2C198.945 90.24 197.097 88.68 195.753 86.52C194.505 84.408 193.761 82.056 193.521 79.464C193.281 76.872 193.401 74.424 193.881 72.12C194.409 69.336 195.297 67.08 196.545 65.352C197.841 63.576 199.377 62.16 201.153 61.104C203.313 59.856 205.737 59.208 208.425 59.16C211.113 59.112 213.681 59.64 216.129 60.744C217.761 61.464 219.225 62.448 220.521 63.696C221.817 64.896 222.801 66.36 223.473 68.088C223.665 68.52 223.809 69.048 223.905 69.672C224.049 70.296 224.145 70.968 224.193 71.688C224.241 72.36 224.241 73.032 224.193 73.704C224.145 74.376 224.025 74.976 223.833 75.504C223.545 76.368 223.185 77.04 222.753 77.52C222.321 78 221.769 78.36 221.097 78.6C220.425 78.84 219.609 79.008 218.649 79.104C217.737 79.152 216.633 79.2 215.337 79.248C214.185 79.296 213.105 79.32 212.097 79.32C211.089 79.32 210.057 79.32 209.001 79.32C207.945 79.272 206.841 79.248 205.689 79.248C204.585 79.2 203.337 79.152 201.945 79.104C201.801 80.064 201.921 80.904 202.305 81.624C202.737 82.296 203.313 82.872 204.033 83.352C204.753 83.784 205.569 84.12 206.481 84.36C207.393 84.6 208.281 84.744 209.145 84.792C210.777 84.888 212.337 84.768 213.825 84.432C215.313 84.048 216.849 83.616 218.433 83.136ZM215.337 69.168C214.425 68.112 213.465 67.344 212.457 66.864C211.689 66.528 210.873 66.384 210.009 66.432C209.193 66.432 208.401 66.552 207.633 66.792C206.241 67.128 205.065 67.848 204.105 68.952C204.009 69.048 203.841 69.288 203.601 69.672C203.361 70.008 203.121 70.368 202.881 70.752C202.689 71.136 202.545 71.496 202.449 71.832C202.353 72.168 202.401 72.336 202.593 72.336H216.705C216.657 71.664 216.537 71.112 216.345 70.68C216.153 70.2 215.817 69.696 215.337 69.168ZM251.665 79.248C252.193 79.92 252.913 80.784 253.825 81.84C254.785 82.848 255.673 83.928 256.489 85.08C257.353 86.184 258.049 87.288 258.577 88.392C259.105 89.496 259.249 90.456 259.009 91.272C258.625 92.52 257.905 93.24 256.849 93.432C255.793 93.624 254.689 93.432 253.537 92.856C252.721 92.472 251.785 91.8 250.729 90.84C249.673 89.88 248.641 88.872 247.633 87.816C246.673 86.76 245.809 85.776 245.041 84.864C244.273 83.904 243.745 83.232 243.457 82.848C243.457 82.8 243.433 82.776 243.385 82.776C243.385 82.776 243.385 82.752 243.385 82.704C243.049 83.088 242.713 83.52 242.377 84C242.041 84.432 241.681 84.864 241.297 85.296C240.817 85.872 240.265 86.568 239.641 87.384C239.065 88.152 238.417 88.92 237.697 89.688C237.025 90.456 236.305 91.176 235.537 91.848C234.817 92.472 234.097 92.928 233.377 93.216C232.417 93.6 231.481 93.528 230.569 93C229.705 92.52 229.153 91.848 228.913 90.984C228.625 89.976 228.697 88.92 229.129 87.816C229.561 86.712 230.137 85.656 230.857 84.648C231.577 83.592 232.345 82.584 233.161 81.624C234.025 80.664 234.721 79.824 235.249 79.104C235.777 78.432 236.233 77.856 236.617 77.376C237.049 76.848 237.457 76.344 237.841 75.864C237.169 75.144 236.449 74.352 235.681 73.488C234.913 72.576 233.833 71.4 232.441 69.96C231.961 69.432 231.433 68.856 230.857 68.232C230.281 67.56 229.753 66.864 229.273 66.144C228.793 65.424 228.409 64.68 228.121 63.912C227.833 63.144 227.761 62.352 227.905 61.536C228.049 60.816 228.361 60.24 228.841 59.808C229.321 59.328 229.897 59.016 230.569 58.872C231.241 58.68 231.937 58.656 232.657 58.8C233.377 58.944 234.049 59.232 234.673 59.664C235.921 60.576 237.097 61.704 238.201 63.048C239.305 64.392 240.385 65.664 241.441 66.864C241.777 67.296 242.089 67.704 242.377 68.088C242.713 68.424 243.025 68.76 243.313 69.096C243.553 68.712 243.841 68.328 244.177 67.944C244.561 67.56 244.945 67.104 245.329 66.576C246.289 65.424 247.249 64.224 248.209 62.976C249.217 61.728 250.321 60.648 251.521 59.736C252.145 59.256 252.793 58.968 253.465 58.872C254.185 58.728 254.857 58.752 255.481 58.944C256.105 59.088 256.657 59.376 257.137 59.808C257.617 60.24 257.929 60.768 258.073 61.392C258.265 62.16 258.241 62.928 258.001 63.696C257.809 64.464 257.473 65.208 256.993 65.928C256.561 66.648 256.057 67.344 255.481 68.016C254.953 68.64 254.449 69.216 253.969 69.744C252.865 70.944 251.905 72.024 251.089 72.984C250.273 73.944 249.505 74.856 248.785 75.72C249.217 76.2 249.649 76.728 250.081 77.304C250.561 77.832 251.089 78.48 251.665 79.248ZM285.048 60.6C286.44 61.176 287.712 62.016 288.864 63.12C290.016 64.176 291 65.4 291.816 66.792C292.68 68.184 293.328 69.696 293.76 71.328C294.24 72.912 294.48 74.52 294.48 76.152C294.528 78.6 293.952 80.904 292.752 83.064C291.6 85.224 289.704 86.88 287.064 88.032C285.048 88.848 282.96 89.472 280.8 89.904C278.688 90.288 276.48 90.552 274.176 90.696V103.872C274.176 104.16 274.128 104.424 274.032 104.664C273.984 104.904 273.96 105.144 273.96 105.384C273.864 105.864 273.744 106.296 273.6 106.68C273.504 107.064 273.36 107.472 273.168 107.904C272.976 108.192 272.784 108.456 272.592 108.696C272.4 108.936 272.184 109.176 271.944 109.416C270.792 109.992 269.592 110.112 268.344 109.776C267.576 109.728 266.952 109.488 266.472 109.056C266.04 108.624 265.728 108.168 265.536 107.688C265.344 107.208 265.176 106.656 265.032 106.032C264.984 105.792 264.936 105.552 264.888 105.312C264.888 105.12 264.888 104.904 264.888 104.664V64.56C264.888 64.272 264.888 63.984 264.888 63.696C264.936 63.36 264.984 63.024 265.032 62.688C265.08 62.112 265.224 61.536 265.464 60.96C265.896 59.76 266.784 58.944 268.128 58.512C269.472 58.08 270.984 57.888 272.664 57.936C273.816 57.984 274.992 58.104 276.192 58.296C277.44 58.488 278.616 58.728 279.72 59.016C280.872 59.256 281.904 59.52 282.816 59.808C283.728 60.096 284.472 60.36 285.048 60.6ZM285.192 76.152C285.384 74.808 285.216 73.68 284.688 72.768C284.208 71.808 283.512 71.04 282.6 70.464C281.688 69.84 280.632 69.36 279.432 69.024C278.28 68.688 277.128 68.448 275.976 68.304C275.832 68.256 275.592 68.232 275.256 68.232C274.968 68.232 274.632 68.232 274.248 68.232C274.248 69.768 274.248 71.256 274.248 72.696C274.296 74.088 274.296 75.6 274.248 77.232V82.056C275.352 82.008 276.504 81.888 277.704 81.696C278.952 81.504 280.104 81.192 281.16 80.76C282.216 80.328 283.104 79.752 283.824 79.032C284.592 78.312 285.048 77.352 285.192 76.152ZM322.789 42.672C323.701 42.432 324.493 42.408 325.165 42.6C325.885 42.744 326.485 43.056 326.965 43.536C327.493 44.016 327.877 44.616 328.117 45.336C328.405 46.056 328.549 46.848 328.549 47.712C328.597 50.112 328.597 51.984 328.549 53.328C328.549 54.672 328.549 55.848 328.549 56.856V78.96C328.549 81.552 328.549 83.712 328.549 85.44C328.549 87.168 328.453 88.584 328.261 89.688C328.117 90.744 327.829 91.536 327.397 92.064C327.013 92.592 326.413 92.952 325.597 93.144C324.781 93.384 323.701 93.504 322.357 93.504C321.061 93.504 319.429 93.504 317.461 93.504C312.277 93.504 308.173 92.28 305.149 89.832C302.173 87.384 300.589 83.496 300.397 78.168C300.301 75.864 300.589 73.752 301.261 71.832C301.933 69.912 302.917 68.28 304.213 66.936C305.557 65.544 307.189 64.488 309.109 63.768C311.077 63 313.309 62.64 315.805 62.688H319.765V49.8C319.765 49.032 319.765 48.288 319.765 47.568C319.765 46.8 319.837 46.104 319.981 45.48C320.125 44.808 320.413 44.232 320.845 43.752C321.277 43.272 321.925 42.912 322.789 42.672ZM310.261 82.632C311.269 84.024 313.093 84.792 315.733 84.936C316.261 84.984 316.765 85.008 317.245 85.008C317.725 84.96 318.157 84.888 318.541 84.792C318.973 84.744 319.381 84.672 319.765 84.576V71.256C318.085 70.968 316.549 70.8 315.157 70.752C313.813 70.656 312.469 71.136 311.125 72.192C310.405 72.768 309.853 73.512 309.469 74.424C309.085 75.288 308.869 76.224 308.821 77.232C308.773 78.192 308.869 79.152 309.109 80.112C309.349 81.072 309.733 81.912 310.261 82.632ZM359.269 83.136C359.845 82.992 360.421 82.896 360.997 82.848C361.621 82.8 362.173 82.872 362.653 83.064C363.181 83.256 363.613 83.592 363.949 84.072C364.285 84.504 364.453 85.128 364.453 85.944C364.453 86.52 364.309 87.072 364.021 87.6C363.733 88.128 363.373 88.608 362.941 89.04C362.509 89.472 362.029 89.856 361.501 90.192C360.973 90.48 360.469 90.72 359.989 90.912C358.597 91.536 356.989 92.016 355.165 92.352C353.389 92.688 351.541 92.808 349.621 92.712C347.029 92.616 344.533 92.112 342.133 91.2C339.781 90.24 337.933 88.68 336.589 86.52C335.341 84.408 334.597 82.056 334.357 79.464C334.117 76.872 334.237 74.424 334.717 72.12C335.245 69.336 336.133 67.08 337.381 65.352C338.677 63.576 340.213 62.16 341.989 61.104C344.149 59.856 346.573 59.208 349.261 59.16C351.949 59.112 354.517 59.64 356.965 60.744C358.597 61.464 360.061 62.448 361.357 63.696C362.653 64.896 363.637 66.36 364.309 68.088C364.501 68.52 364.645 69.048 364.741 69.672C364.885 70.296 364.981 70.968 365.029 71.688C365.077 72.36 365.077 73.032 365.029 73.704C364.981 74.376 364.861 74.976 364.669 75.504C364.381 76.368 364.021 77.04 363.589 77.52C363.157 78 362.605 78.36 361.933 78.6C361.261 78.84 360.445 79.008 359.485 79.104C358.573 79.152 357.469 79.2 356.173 79.248C355.021 79.296 353.941 79.32 352.933 79.32C351.925 79.32 350.893 79.32 349.837 79.32C348.781 79.272 347.677 79.248 346.525 79.248C345.421 79.2 344.173 79.152 342.781 79.104C342.637 80.064 342.757 80.904 343.141 81.624C343.573 82.296 344.149 82.872 344.869 83.352C345.589 83.784 346.405 84.12 347.317 84.36C348.229 84.6 349.117 84.744 349.981 84.792C351.613 84.888 353.173 84.768 354.661 84.432C356.149 84.048 357.685 83.616 359.269 83.136ZM356.173 69.168C355.261 68.112 354.301 67.344 353.293 66.864C352.525 66.528 351.709 66.384 350.845 66.432C350.029 66.432 349.237 66.552 348.469 66.792C347.077 67.128 345.901 67.848 344.941 68.952C344.845 69.048 344.677 69.288 344.437 69.672C344.197 70.008 343.957 70.368 343.717 70.752C343.525 71.136 343.381 71.496 343.285 71.832C343.189 72.168 343.237 72.336 343.429 72.336H357.541C357.493 71.664 357.373 71.112 357.181 70.68C356.989 70.2 356.653 69.696 356.173 69.168ZM402.889 61.464C403.081 62.04 403.129 62.688 403.033 63.408C402.937 64.128 402.769 64.872 402.529 65.64C402.289 66.36 402.001 67.08 401.665 67.8C401.377 68.472 401.113 69.072 400.873 69.6C399.625 72.144 398.449 74.64 397.345 77.088C396.241 79.536 394.945 82.2 393.457 85.08C393.169 85.656 392.833 86.352 392.449 87.168C392.113 87.936 391.729 88.704 391.297 89.472C390.865 90.192 390.385 90.864 389.857 91.488C389.377 92.112 388.849 92.568 388.273 92.856C387.793 93.144 387.313 93.264 386.833 93.216C386.449 93.312 386.017 93.192 385.537 92.856C384.961 92.568 384.409 92.112 383.881 91.488C383.401 90.864 382.945 90.192 382.513 89.472C382.081 88.704 381.673 87.936 381.289 87.168C380.953 86.352 380.641 85.656 380.353 85.08C379.777 83.976 379.225 82.944 378.697 81.984C378.217 81.024 377.689 79.992 377.113 78.888C376.585 77.736 375.985 76.44 375.313 75C374.641 73.512 373.849 71.712 372.937 69.6C372.697 69.024 372.433 68.424 372.145 67.8C371.857 67.176 371.593 66.504 371.353 65.784C371.161 65.064 371.017 64.344 370.921 63.624C370.873 62.856 370.921 62.088 371.065 61.32C371.209 60.6 371.569 60.024 372.145 59.592C372.721 59.16 373.369 58.872 374.089 58.728C374.809 58.584 375.529 58.608 376.249 58.8C376.969 58.944 377.545 59.256 377.977 59.736C378.409 60.168 378.817 60.744 379.201 61.464C379.585 62.184 379.945 62.952 380.281 63.768C380.665 64.536 381.001 65.328 381.289 66.144C381.625 66.912 381.937 67.584 382.225 68.16C382.897 69.552 383.641 71.064 384.457 72.696C385.321 74.328 386.089 75.84 386.761 77.232C387.241 76.128 387.673 75.216 388.057 74.496C388.441 73.728 388.801 72.984 389.137 72.264C389.521 71.544 389.905 70.752 390.289 69.888C390.721 69.024 391.249 67.92 391.873 66.576C392.449 65.328 393.025 64.104 393.601 62.904C394.225 61.704 394.969 60.648 395.833 59.736C396.265 59.256 396.817 58.944 397.489 58.8C398.161 58.608 398.857 58.584 399.577 58.728C400.297 58.872 400.945 59.184 401.521 59.664C402.145 60.096 402.601 60.696 402.889 61.464Z" fill="#1EB511"/>
<path d="M417.744 93C417.744 94.248 417.288 95.304 416.376 96.168C415.512 97.08 414.456 97.536 413.208 97.536C411.96 97.536 410.88 97.08 409.968 96.168C409.104 95.304 408.672 94.248 408.672 93C408.672 91.752 409.104 90.672 409.968 89.76C410.88 88.848 411.96 88.392 413.208 88.392C414.456 88.392 415.512 88.848 416.376 89.76C417.288 90.672 417.744 91.752 417.744 93ZM447.134 79.248C447.662 79.92 448.382 80.784 449.294 81.84C450.254 82.848 451.142 83.928 451.958 85.08C452.822 86.184 453.518 87.288 454.046 88.392C454.574 89.496 454.718 90.456 454.478 91.272C454.094 92.52 453.374 93.24 452.318 93.432C451.262 93.624 450.158 93.432 449.006 92.856C448.19 92.472 447.254 91.8 446.198 90.84C445.142 89.88 444.11 88.872 443.102 87.816C442.142 86.76 441.278 85.776 440.51 84.864C439.742 83.904 439.214 83.232 438.926 82.848C438.926 82.8 438.902 82.776 438.854 82.776C438.854 82.776 438.854 82.752 438.854 82.704C438.518 83.088 438.182 83.52 437.846 84C437.51 84.432 437.15 84.864 436.766 85.296C436.286 85.872 435.734 86.568 435.11 87.384C434.534 88.152 433.886 88.92 433.166 89.688C432.494 90.456 431.774 91.176 431.006 91.848C430.286 92.472 429.566 92.928 428.846 93.216C427.886 93.6 426.95 93.528 426.038 93C425.174 92.52 424.622 91.848 424.382 90.984C424.094 89.976 424.166 88.92 424.598 87.816C425.03 86.712 425.606 85.656 426.326 84.648C427.046 83.592 427.814 82.584 428.63 81.624C429.494 80.664 430.19 79.824 430.718 79.104C431.246 78.432 431.702 77.856 432.086 77.376C432.518 76.848 432.926 76.344 433.31 75.864C432.638 75.144 431.918 74.352 431.15 73.488C430.382 72.576 429.302 71.4 427.91 69.96C427.43 69.432 426.902 68.856 426.326 68.232C425.75 67.56 425.222 66.864 424.742 66.144C424.262 65.424 423.878 64.68 423.59 63.912C423.302 63.144 423.23 62.352 423.374 61.536C423.518 60.816 423.83 60.24 424.31 59.808C424.79 59.328 425.366 59.016 426.038 58.872C426.71 58.68 427.406 58.656 428.126 58.8C428.846 58.944 429.518 59.232 430.142 59.664C431.39 60.576 432.566 61.704 433.67 63.048C434.774 64.392 435.854 65.664 436.91 66.864C437.246 67.296 437.558 67.704 437.846 68.088C438.182 68.424 438.494 68.76 438.782 69.096C439.022 68.712 439.31 68.328 439.646 67.944C440.03 67.56 440.414 67.104 440.798 66.576C441.758 65.424 442.718 64.224 443.678 62.976C444.686 61.728 445.79 60.648 446.99 59.736C447.614 59.256 448.262 58.968 448.934 58.872C449.654 58.728 450.326 58.752 450.95 58.944C451.574 59.088 452.126 59.376 452.606 59.808C453.086 60.24 453.398 60.768 453.542 61.392C453.734 62.16 453.71 62.928 453.47 63.696C453.278 64.464 452.942 65.208 452.462 65.928C452.03 66.648 451.526 67.344 450.95 68.016C450.422 68.64 449.918 69.216 449.438 69.744C448.334 70.944 447.374 72.024 446.558 72.984C445.742 73.944 444.974 74.856 444.254 75.72C444.686 76.2 445.118 76.728 445.55 77.304C446.03 77.832 446.558 78.48 447.134 79.248ZM491.225 60.888C491.657 61.56 491.849 62.28 491.801 63.048C491.801 64.152 491.609 65.112 491.225 65.928C491.129 66.168 490.985 66.48 490.793 66.864C490.649 67.248 490.481 67.656 490.289 68.088C490.145 68.52 489.977 68.928 489.785 69.312C489.593 69.696 489.449 69.984 489.353 70.176L489.209 70.536C488.537 72.024 487.889 73.464 487.265 74.856C486.641 76.248 485.945 77.736 485.177 79.32C484.409 80.856 483.665 82.368 482.945 83.856C482.273 85.296 481.601 86.712 480.929 88.104C480.737 88.488 480.569 88.872 480.425 89.256C480.281 89.592 480.089 89.952 479.849 90.336L476.393 97.752C475.769 99 475.169 100.224 474.593 101.424C474.065 102.624 473.465 103.824 472.793 105.024C472.649 105.264 472.505 105.48 472.361 105.672C472.265 105.912 472.169 106.152 472.073 106.392C471.737 106.968 471.233 107.52 470.561 108.048C469.937 108.624 469.265 108.936 468.545 108.984C467.249 109.08 466.121 108.696 465.161 107.832C464.585 107.496 464.129 107.016 463.793 106.392C463.601 105.96 463.505 105.408 463.505 104.736C463.553 104.448 463.577 104.16 463.577 103.872C463.625 103.632 463.673 103.392 463.721 103.152C463.817 102.912 463.889 102.672 463.937 102.432C463.985 102.192 464.057 102 464.153 101.856C464.297 101.472 464.417 101.28 464.513 101.28L469.769 89.904C469.529 89.376 469.289 88.848 469.049 88.32C468.809 87.744 468.593 87.24 468.401 86.808C467.777 85.32 467.105 83.76 466.385 82.128C465.713 80.448 465.017 78.792 464.297 77.16C463.577 75.48 462.833 73.848 462.065 72.264C461.297 70.68 460.529 69.168 459.761 67.728C459.473 67.248 459.209 66.744 458.969 66.216C458.729 65.64 458.537 65.088 458.393 64.56C458.249 63.984 458.201 63.408 458.249 62.832C458.297 62.256 458.513 61.68 458.897 61.104C459.281 60.384 459.785 59.88 460.409 59.592C461.033 59.256 461.681 59.112 462.353 59.16C463.073 59.16 463.745 59.304 464.369 59.592C464.993 59.88 465.497 60.264 465.881 60.744C466.697 61.608 467.345 62.568 467.825 63.624C468.305 64.68 468.761 65.76 469.193 66.864C470.105 68.784 471.041 70.8 472.001 72.912C472.961 75.024 473.921 77.088 474.881 79.104L478.625 71.184C479.009 70.416 479.345 69.672 479.633 68.952C479.969 68.232 480.305 67.536 480.641 66.864C481.025 66.048 481.385 65.208 481.721 64.344C482.105 63.48 482.537 62.688 483.017 61.968C483.113 61.776 483.209 61.608 483.305 61.464C483.401 61.32 483.497 61.152 483.593 60.96C484.025 60.384 484.409 59.928 484.745 59.592C484.985 59.4 485.177 59.256 485.321 59.16C485.513 59.016 485.729 58.92 485.969 58.872C486.305 58.776 486.617 58.728 486.905 58.728C487.241 58.68 487.553 58.68 487.841 58.728C488.321 58.872 488.897 59.088 489.569 59.376C490.289 59.664 490.841 60.168 491.225 60.888ZM517.35 84.36C518.07 84.36 518.862 84.384 519.726 84.432C520.638 84.432 521.502 84.504 522.318 84.648C523.182 84.744 523.95 84.936 524.622 85.224C525.342 85.512 525.846 85.896 526.134 86.376C526.854 87.624 527.07 88.752 526.782 89.76C526.542 90.72 526.014 91.464 525.198 91.992C524.334 92.616 523.326 93.024 522.174 93.216C521.022 93.456 519.966 93.552 519.006 93.504C517.038 93.408 514.95 93.384 512.742 93.432C510.534 93.528 508.446 93.6 506.478 93.648C505.806 93.648 505.086 93.648 504.318 93.648C503.598 93.696 502.902 93.648 502.23 93.504C501.558 93.408 500.91 93.192 500.286 92.856C499.71 92.52 499.206 91.992 498.774 91.272C498.198 90.36 498.054 89.448 498.342 88.536C498.678 87.576 499.062 86.688 499.494 85.872C500.166 84.672 500.958 83.496 501.87 82.344C502.83 81.192 503.646 80.208 504.318 79.392L513.318 67.584L506.046 67.8C505.47 67.8 504.846 67.8 504.174 67.8C503.55 67.8 502.902 67.752 502.23 67.656C501.558 67.512 500.934 67.344 500.358 67.152C499.782 66.96 499.278 66.672 498.846 66.288C498.414 65.856 498.102 65.376 497.91 64.848C497.718 64.272 497.622 63.696 497.622 63.12C497.67 62.544 497.79 61.992 497.982 61.464C498.222 60.888 498.534 60.384 498.918 59.952C499.206 59.664 499.566 59.424 499.998 59.232C500.478 59.04 501.006 58.896 501.582 58.8C502.158 58.704 502.734 58.656 503.31 58.656C503.934 58.608 504.51 58.584 505.038 58.584C506.094 58.584 507.27 58.584 508.566 58.584C509.862 58.584 511.11 58.584 512.31 58.584C513.558 58.536 514.71 58.512 515.766 58.512C516.87 58.464 517.758 58.44 518.43 58.44C519.294 58.44 520.158 58.416 521.022 58.368C521.886 58.32 522.702 58.392 523.47 58.584C524.238 58.776 524.886 59.136 525.414 59.664C525.99 60.144 526.35 60.936 526.494 62.04C526.59 62.76 526.542 63.48 526.35 64.2C526.206 64.872 525.942 65.544 525.558 66.216C525.222 66.84 524.814 67.488 524.334 68.16C523.854 68.784 523.374 69.384 522.894 69.96L511.734 84.36H517.35Z" fill="#9A49EC"/>
</g>
<defs>
<clipPath id="clip0_2026_2">
<rect width="596" height="141" fill="white"/>
</clipPath>
</defs>
</svg>
