<svg width="584" height="201" viewBox="0 0 584 201" fill="none" xmlns="http://www.w3.org/2000/svg">
<g clip-path="url(#clip0_2008_7)">
<path d="M85.9098 120.8C85.8498 121.1 85.7898 121.4 85.7298 121.7C85.7298 121.94 85.7298 122.21 85.7298 122.51L85.1898 124.4C85.0698 124.64 84.9798 124.79 84.9198 124.85L84.6498 125.39C84.3498 126.05 83.8098 126.59 83.0298 127.01C81.5898 127.73 80.0598 127.91 78.4398 127.55C77.4198 127.43 76.6098 127.13 76.0098 126.65C75.4098 126.23 74.9898 125.72 74.7498 125.12C74.5098 124.52 74.3298 123.92 74.2098 123.32C74.0298 122.72 73.9398 122.18 73.9398 121.7V71.3C73.9398 70.88 73.9398 70.52 73.9398 70.22C73.9998 69.86 74.0598 69.53 74.1198 69.23C74.1798 68.81 74.2398 68.45 74.2998 68.15C74.4198 67.85 74.5398 67.52 74.6598 67.16C74.8398 66.56 75.1698 66.08 75.6498 65.72C76.3698 65.18 77.0598 64.88 77.7198 64.82C78.1398 64.7 78.5298 64.64 78.8898 64.64C79.2498 64.58 79.6698 64.55 80.1498 64.55C80.9898 64.55 81.9498 64.79 83.0298 65.27C83.8698 65.75 84.4698 66.41 84.8298 67.25C85.4298 68.45 85.7298 69.56 85.7298 70.58C85.7898 71.18 85.8198 72.08 85.8198 73.28C85.8798 74.48 85.9098 75.38 85.9098 75.98V76.34C86.0298 78.26 86.0898 80.12 86.0898 81.92C86.0898 83.66 86.0598 85.58 85.9998 87.68C85.9998 89.72 85.9698 91.7 85.9098 93.62C85.9098 95.48 85.9098 97.34 85.9098 99.2V118.1C85.9098 118.34 85.9098 118.58 85.9098 118.82C85.9698 119 85.9998 119.21 85.9998 119.45C85.9998 120.05 85.9698 120.5 85.9098 120.8ZM124.416 115.67C125.136 115.49 125.856 115.37 126.576 115.31C127.356 115.25 128.046 115.34 128.646 115.58C129.306 115.82 129.846 116.24 130.266 116.84C130.686 117.38 130.896 118.16 130.896 119.18C130.896 119.9 130.716 120.59 130.356 121.25C129.996 121.91 129.546 122.51 129.006 123.05C128.466 123.59 127.866 124.07 127.206 124.49C126.546 124.85 125.916 125.15 125.316 125.39C123.576 126.17 121.566 126.77 119.286 127.19C117.066 127.61 114.756 127.76 112.356 127.64C109.116 127.52 105.996 126.89 102.996 125.75C100.056 124.55 97.7458 122.6 96.0658 119.9C94.5058 117.26 93.5758 114.32 93.2758 111.08C92.9758 107.84 93.1258 104.78 93.7258 101.9C94.3858 98.42 95.4958 95.6 97.0558 93.44C98.6758 91.22 100.596 89.45 102.816 88.13C105.516 86.57 108.546 85.76 111.906 85.7C115.266 85.64 118.476 86.3 121.536 87.68C123.576 88.58 125.406 89.81 127.026 91.37C128.646 92.87 129.876 94.7 130.716 96.86C130.956 97.4 131.136 98.06 131.256 98.84C131.436 99.62 131.556 100.46 131.616 101.36C131.676 102.2 131.676 103.04 131.616 103.88C131.556 104.72 131.406 105.47 131.166 106.13C130.806 107.21 130.356 108.05 129.816 108.65C129.276 109.25 128.586 109.7 127.746 110C126.906 110.3 125.886 110.51 124.686 110.63C123.546 110.69 122.166 110.75 120.546 110.81C119.106 110.87 117.756 110.9 116.496 110.9C115.236 110.9 113.946 110.9 112.626 110.9C111.306 110.84 109.926 110.81 108.486 110.81C107.106 110.75 105.546 110.69 103.806 110.63C103.626 111.83 103.776 112.88 104.256 113.78C104.796 114.62 105.516 115.34 106.416 115.94C107.316 116.48 108.336 116.9 109.476 117.2C110.616 117.5 111.726 117.68 112.806 117.74C114.846 117.86 116.796 117.71 118.656 117.29C120.516 116.81 122.436 116.27 124.416 115.67ZM120.546 98.21C119.406 96.89 118.206 95.93 116.946 95.33C115.986 94.91 114.966 94.73 113.886 94.79C112.866 94.79 111.876 94.94 110.916 95.24C109.176 95.66 107.706 96.56 106.506 97.94C106.386 98.06 106.176 98.36 105.876 98.84C105.576 99.26 105.276 99.71 104.976 100.19C104.736 100.67 104.556 101.12 104.436 101.54C104.316 101.96 104.376 102.17 104.616 102.17H122.256C122.196 101.33 122.046 100.64 121.806 100.1C121.566 99.5 121.146 98.87 120.546 98.21ZM165.956 110.81C166.616 111.65 167.516 112.73 168.656 114.05C169.856 115.31 170.966 116.66 171.986 118.1C173.066 119.48 173.936 120.86 174.596 122.24C175.256 123.62 175.436 124.82 175.136 125.84C174.656 127.4 173.756 128.3 172.436 128.54C171.116 128.78 169.736 128.54 168.296 127.82C167.276 127.34 166.106 126.5 164.786 125.3C163.466 124.1 162.176 122.84 160.916 121.52C159.716 120.2 158.636 118.97 157.676 117.83C156.716 116.63 156.056 115.79 155.696 115.31C155.696 115.25 155.666 115.22 155.606 115.22C155.606 115.22 155.606 115.19 155.606 115.13C155.186 115.61 154.766 116.15 154.346 116.75C153.926 117.29 153.476 117.83 152.996 118.37C152.396 119.09 151.706 119.96 150.926 120.98C150.206 121.94 149.396 122.9 148.496 123.86C147.656 124.82 146.756 125.72 145.796 126.56C144.896 127.34 143.996 127.91 143.096 128.27C141.896 128.75 140.726 128.66 139.586 128C138.506 127.4 137.816 126.56 137.516 125.48C137.156 124.22 137.246 122.9 137.786 121.52C138.326 120.14 139.046 118.82 139.946 117.56C140.846 116.24 141.806 114.98 142.826 113.78C143.906 112.58 144.776 111.53 145.436 110.63C146.096 109.79 146.666 109.07 147.146 108.47C147.686 107.81 148.196 107.18 148.676 106.58C147.836 105.68 146.936 104.69 145.976 103.61C145.016 102.47 143.666 101 141.926 99.2C141.326 98.54 140.666 97.82 139.946 97.04C139.226 96.2 138.566 95.33 137.966 94.43C137.366 93.53 136.886 92.6 136.526 91.64C136.166 90.68 136.076 89.69 136.256 88.67C136.436 87.77 136.826 87.05 137.426 86.51C138.026 85.91 138.746 85.52 139.586 85.34C140.426 85.1 141.296 85.07 142.196 85.25C143.096 85.43 143.936 85.79 144.716 86.33C146.276 87.47 147.746 88.88 149.126 90.56C150.506 92.24 151.856 93.83 153.176 95.33C153.596 95.87 153.986 96.38 154.346 96.86C154.766 97.28 155.156 97.7 155.516 98.12C155.816 97.64 156.176 97.16 156.596 96.68C157.076 96.2 157.556 95.63 158.036 94.97C159.236 93.53 160.436 92.03 161.636 90.47C162.896 88.91 164.276 87.56 165.776 86.42C166.556 85.82 167.366 85.46 168.206 85.34C169.106 85.16 169.946 85.19 170.726 85.43C171.506 85.61 172.196 85.97 172.796 86.51C173.396 87.05 173.786 87.71 173.966 88.49C174.206 89.45 174.176 90.41 173.876 91.37C173.636 92.33 173.216 93.26 172.616 94.16C172.076 95.06 171.446 95.93 170.726 96.77C170.066 97.55 169.436 98.27 168.836 98.93C167.456 100.43 166.256 101.78 165.236 102.98C164.216 104.18 163.256 105.32 162.356 106.4C162.896 107 163.436 107.66 163.976 108.38C164.576 109.04 165.236 109.85 165.956 110.81ZM207.685 87.5C209.425 88.22 211.015 89.27 212.455 90.65C213.895 91.97 215.125 93.5 216.145 95.24C217.225 96.98 218.035 98.87 218.575 100.91C219.175 102.89 219.475 104.9 219.475 106.94C219.535 110 218.815 112.88 217.315 115.58C215.875 118.28 213.505 120.35 210.205 121.79C207.685 122.81 205.075 123.59 202.375 124.13C199.735 124.61 196.975 124.94 194.095 125.12V141.59C194.095 141.95 194.035 142.28 193.915 142.58C193.855 142.88 193.825 143.18 193.825 143.48C193.705 144.08 193.555 144.62 193.375 145.1C193.255 145.58 193.075 146.09 192.835 146.63C192.595 146.99 192.355 147.32 192.115 147.62C191.875 147.92 191.605 148.22 191.305 148.52C189.865 149.24 188.365 149.39 186.805 148.97C185.845 148.91 185.065 148.61 184.465 148.07C183.925 147.53 183.535 146.96 183.295 146.36C183.055 145.76 182.845 145.07 182.665 144.29C182.605 143.99 182.545 143.69 182.485 143.39C182.485 143.15 182.485 142.88 182.485 142.58V92.45C182.485 92.09 182.485 91.73 182.485 91.37C182.545 90.95 182.605 90.53 182.665 90.11C182.725 89.39 182.905 88.67 183.205 87.95C183.745 86.45 184.855 85.43 186.535 84.89C188.215 84.35 190.105 84.11 192.205 84.17C193.645 84.23 195.115 84.38 196.615 84.62C198.175 84.86 199.645 85.16 201.025 85.52C202.465 85.82 203.755 86.15 204.895 86.51C206.035 86.87 206.965 87.2 207.685 87.5ZM207.865 106.94C208.105 105.26 207.895 103.85 207.235 102.71C206.635 101.51 205.765 100.55 204.625 99.83C203.485 99.05 202.165 98.45 200.665 98.03C199.225 97.61 197.785 97.31 196.345 97.13C196.165 97.07 195.865 97.04 195.445 97.04C195.085 97.04 194.665 97.04 194.185 97.04C194.185 98.96 194.185 100.82 194.185 102.62C194.245 104.36 194.245 106.25 194.185 108.29V114.32C195.565 114.26 197.005 114.11 198.505 113.87C200.065 113.63 201.505 113.24 202.825 112.7C204.145 112.16 205.255 111.44 206.155 110.54C207.115 109.64 207.685 108.44 207.865 106.94ZM254.862 65.09C256.002 64.79 256.992 64.76 257.832 65C258.732 65.18 259.482 65.57 260.082 66.17C260.742 66.77 261.222 67.52 261.522 68.42C261.882 69.32 262.062 70.31 262.062 71.39C262.122 74.39 262.122 76.73 262.062 78.41C262.062 80.09 262.062 81.56 262.062 82.82V110.45C262.062 113.69 262.062 116.39 262.062 118.55C262.062 120.71 261.942 122.48 261.702 123.86C261.522 125.18 261.162 126.17 260.622 126.83C260.142 127.49 259.392 127.94 258.372 128.18C257.352 128.48 256.002 128.63 254.322 128.63C252.702 128.63 250.662 128.63 248.202 128.63C241.722 128.63 236.592 127.1 232.812 124.04C229.092 120.98 227.112 116.12 226.872 109.46C226.752 106.58 227.112 103.94 227.952 101.54C228.792 99.14 230.022 97.1 231.642 95.42C233.322 93.68 235.362 92.36 237.762 91.46C240.222 90.5 243.012 90.05 246.132 90.11H251.082V74C251.082 73.04 251.082 72.11 251.082 71.21C251.082 70.25 251.172 69.38 251.352 68.6C251.532 67.76 251.892 67.04 252.432 66.44C252.972 65.84 253.782 65.39 254.862 65.09ZM239.202 115.04C240.462 116.78 242.742 117.74 246.042 117.92C246.702 117.98 247.332 118.01 247.932 118.01C248.532 117.95 249.072 117.86 249.552 117.74C250.092 117.68 250.602 117.59 251.082 117.47V100.82C248.982 100.46 247.062 100.25 245.322 100.19C243.642 100.07 241.962 100.67 240.282 101.99C239.382 102.71 238.692 103.64 238.212 104.78C237.732 105.86 237.462 107.03 237.402 108.29C237.342 109.49 237.462 110.69 237.762 111.89C238.062 113.09 238.542 114.14 239.202 115.04ZM300.461 115.67C301.181 115.49 301.901 115.37 302.621 115.31C303.401 115.25 304.091 115.34 304.691 115.58C305.351 115.82 305.891 116.24 306.311 116.84C306.731 117.38 306.941 118.16 306.941 119.18C306.941 119.9 306.761 120.59 306.401 121.25C306.041 121.91 305.591 122.51 305.051 123.05C304.511 123.59 303.911 124.07 303.251 124.49C302.591 124.85 301.961 125.15 301.361 125.39C299.621 126.17 297.611 126.77 295.331 127.19C293.111 127.61 290.801 127.76 288.401 127.64C285.161 127.52 282.041 126.89 279.041 125.75C276.101 124.55 273.791 122.6 272.111 119.9C270.551 117.26 269.621 114.32 269.321 111.08C269.021 107.84 269.171 104.78 269.771 101.9C270.431 98.42 271.541 95.6 273.101 93.44C274.721 91.22 276.641 89.45 278.861 88.13C281.561 86.57 284.591 85.76 287.951 85.7C291.311 85.64 294.521 86.3 297.581 87.68C299.621 88.58 301.451 89.81 303.071 91.37C304.691 92.87 305.921 94.7 306.761 96.86C307.001 97.4 307.181 98.06 307.301 98.84C307.481 99.62 307.601 100.46 307.661 101.36C307.721 102.2 307.721 103.04 307.661 103.88C307.601 104.72 307.451 105.47 307.211 106.13C306.851 107.21 306.401 108.05 305.861 108.65C305.321 109.25 304.631 109.7 303.791 110C302.951 110.3 301.931 110.51 300.731 110.63C299.591 110.69 298.211 110.75 296.591 110.81C295.151 110.87 293.801 110.9 292.541 110.9C291.281 110.9 289.991 110.9 288.671 110.9C287.351 110.84 285.971 110.81 284.531 110.81C283.151 110.75 281.591 110.69 279.851 110.63C279.671 111.83 279.821 112.88 280.301 113.78C280.841 114.62 281.561 115.34 282.461 115.94C283.361 116.48 284.381 116.9 285.521 117.2C286.661 117.5 287.771 117.68 288.851 117.74C290.891 117.86 292.841 117.71 294.701 117.29C296.561 116.81 298.481 116.27 300.461 115.67ZM296.591 98.21C295.451 96.89 294.251 95.93 292.991 95.33C292.031 94.91 291.011 94.73 289.931 94.79C288.911 94.79 287.921 94.94 286.961 95.24C285.221 95.66 283.751 96.56 282.551 97.94C282.431 98.06 282.221 98.36 281.921 98.84C281.621 99.26 281.321 99.71 281.021 100.19C280.781 100.67 280.601 101.12 280.481 101.54C280.361 101.96 280.421 102.17 280.661 102.17H298.301C298.241 101.33 298.091 100.64 297.851 100.1C297.611 99.5 297.191 98.87 296.591 98.21ZM354.986 88.58C355.226 89.3 355.286 90.11 355.166 91.01C355.046 91.91 354.836 92.84 354.536 93.8C354.236 94.7 353.876 95.6 353.456 96.5C353.096 97.34 352.766 98.09 352.466 98.75C350.906 101.93 349.436 105.05 348.056 108.11C346.676 111.17 345.056 114.5 343.196 118.1C342.836 118.82 342.416 119.69 341.936 120.71C341.516 121.67 341.036 122.63 340.496 123.59C339.956 124.49 339.356 125.33 338.696 126.11C338.096 126.89 337.436 127.46 336.716 127.82C336.116 128.18 335.516 128.33 334.916 128.27C334.436 128.39 333.896 128.24 333.296 127.82C332.576 127.46 331.886 126.89 331.226 126.11C330.626 125.33 330.056 124.49 329.516 123.59C328.976 122.63 328.466 121.67 327.986 120.71C327.566 119.69 327.176 118.82 326.816 118.1C326.096 116.72 325.406 115.43 324.746 114.23C324.146 113.03 323.486 111.74 322.766 110.36C322.106 108.92 321.356 107.3 320.516 105.5C319.676 103.64 318.686 101.39 317.546 98.75C317.246 98.03 316.916 97.28 316.556 96.5C316.196 95.72 315.866 94.88 315.566 93.98C315.326 93.08 315.146 92.18 315.026 91.28C314.966 90.32 315.026 89.36 315.206 88.4C315.386 87.5 315.836 86.78 316.556 86.24C317.276 85.7 318.086 85.34 318.986 85.16C319.886 84.98 320.786 85.01 321.686 85.25C322.586 85.43 323.306 85.82 323.846 86.42C324.386 86.96 324.896 87.68 325.376 88.58C325.856 89.48 326.306 90.44 326.726 91.46C327.206 92.42 327.626 93.41 327.986 94.43C328.406 95.39 328.796 96.23 329.156 96.95C329.996 98.69 330.926 100.58 331.946 102.62C333.026 104.66 333.986 106.55 334.826 108.29C335.426 106.91 335.966 105.77 336.446 104.87C336.926 103.91 337.376 102.98 337.796 102.08C338.276 101.18 338.756 100.19 339.236 99.11C339.776 98.03 340.436 96.65 341.216 94.97C341.936 93.41 342.656 91.88 343.376 90.38C344.156 88.88 345.086 87.56 346.166 86.42C346.706 85.82 347.396 85.43 348.236 85.25C349.076 85.01 349.946 84.98 350.846 85.16C351.746 85.34 352.556 85.73 353.276 86.33C354.056 86.87 354.626 87.62 354.986 88.58Z" fill="#44FF34"/>
<path d="M373.555 128C373.555 129.56 372.985 130.88 371.845 131.96C370.765 133.1 369.445 133.67 367.885 133.67C366.325 133.67 364.975 133.1 363.835 131.96C362.755 130.88 362.215 129.56 362.215 128C362.215 126.44 362.755 125.09 363.835 123.95C364.975 122.81 366.325 122.24 367.885 122.24C369.445 122.24 370.765 122.81 371.845 123.95C372.985 125.09 373.555 126.44 373.555 128ZM410.292 110.81C410.952 111.65 411.852 112.73 412.992 114.05C414.192 115.31 415.302 116.66 416.322 118.1C417.402 119.48 418.272 120.86 418.932 122.24C419.592 123.62 419.772 124.82 419.472 125.84C418.992 127.4 418.092 128.3 416.772 128.54C415.452 128.78 414.072 128.54 412.632 127.82C411.612 127.34 410.442 126.5 409.122 125.3C407.802 124.1 406.512 122.84 405.252 121.52C404.052 120.2 402.972 118.97 402.012 117.83C401.052 116.63 400.392 115.79 400.032 115.31C400.032 115.25 400.002 115.22 399.942 115.22C399.942 115.22 399.942 115.19 399.942 115.13C399.522 115.61 399.102 116.15 398.682 116.75C398.262 117.29 397.812 117.83 397.332 118.37C396.732 119.09 396.042 119.96 395.262 120.98C394.542 121.94 393.732 122.9 392.832 123.86C391.992 124.82 391.092 125.72 390.132 126.56C389.232 127.34 388.332 127.91 387.432 128.27C386.232 128.75 385.062 128.66 383.922 128C382.842 127.4 382.152 126.56 381.852 125.48C381.492 124.22 381.582 122.9 382.122 121.52C382.662 120.14 383.382 118.82 384.282 117.56C385.182 116.24 386.142 114.98 387.162 113.78C388.242 112.58 389.112 111.53 389.772 110.63C390.432 109.79 391.002 109.07 391.482 108.47C392.022 107.81 392.532 107.18 393.012 106.58C392.172 105.68 391.272 104.69 390.312 103.61C389.352 102.47 388.002 101 386.262 99.2C385.662 98.54 385.002 97.82 384.282 97.04C383.562 96.2 382.902 95.33 382.302 94.43C381.702 93.53 381.222 92.6 380.862 91.64C380.502 90.68 380.412 89.69 380.592 88.67C380.772 87.77 381.162 87.05 381.762 86.51C382.362 85.91 383.082 85.52 383.922 85.34C384.762 85.1 385.632 85.07 386.532 85.25C387.432 85.43 388.272 85.79 389.052 86.33C390.612 87.47 392.082 88.88 393.462 90.56C394.842 92.24 396.192 93.83 397.512 95.33C397.932 95.87 398.322 96.38 398.682 96.86C399.102 97.28 399.492 97.7 399.852 98.12C400.152 97.64 400.512 97.16 400.932 96.68C401.412 96.2 401.892 95.63 402.372 94.97C403.572 93.53 404.772 92.03 405.972 90.47C407.232 88.91 408.612 87.56 410.112 86.42C410.892 85.82 411.702 85.46 412.542 85.34C413.442 85.16 414.282 85.19 415.062 85.43C415.842 85.61 416.532 85.97 417.132 86.51C417.732 87.05 418.122 87.71 418.302 88.49C418.542 89.45 418.512 90.41 418.212 91.37C417.972 92.33 417.552 93.26 416.952 94.16C416.412 95.06 415.782 95.93 415.062 96.77C414.402 97.55 413.772 98.27 413.172 98.93C411.792 100.43 410.592 101.78 409.572 102.98C408.552 104.18 407.592 105.32 406.692 106.4C407.232 107 407.772 107.66 408.312 108.38C408.912 109.04 409.572 109.85 410.292 110.81ZM465.406 87.86C465.946 88.7 466.186 89.6 466.126 90.56C466.126 91.94 465.886 93.14 465.406 94.16C465.286 94.46 465.106 94.85 464.866 95.33C464.686 95.81 464.476 96.32 464.236 96.86C464.056 97.4 463.846 97.91 463.606 98.39C463.366 98.87 463.186 99.23 463.066 99.47L462.886 99.92C462.046 101.78 461.236 103.58 460.456 105.32C459.676 107.06 458.806 108.92 457.846 110.9C456.886 112.82 455.956 114.71 455.056 116.57C454.216 118.37 453.376 120.14 452.536 121.88C452.296 122.36 452.086 122.84 451.906 123.32C451.726 123.74 451.486 124.19 451.186 124.67L446.866 133.94C446.086 135.5 445.336 137.03 444.616 138.53C443.956 140.03 443.206 141.53 442.366 143.03C442.186 143.33 442.006 143.6 441.826 143.84C441.706 144.14 441.586 144.44 441.466 144.74C441.046 145.46 440.416 146.15 439.576 146.81C438.796 147.53 437.956 147.92 437.056 147.98C435.436 148.1 434.026 147.62 432.826 146.54C432.106 146.12 431.536 145.52 431.116 144.74C430.876 144.2 430.756 143.51 430.756 142.67C430.816 142.31 430.846 141.95 430.846 141.59C430.906 141.29 430.966 140.99 431.026 140.69C431.146 140.39 431.236 140.09 431.296 139.79C431.356 139.49 431.446 139.25 431.566 139.07C431.746 138.59 431.896 138.35 432.016 138.35L438.586 124.13C438.286 123.47 437.986 122.81 437.686 122.15C437.386 121.43 437.116 120.8 436.876 120.26C436.096 118.4 435.256 116.45 434.356 114.41C433.516 112.31 432.646 110.24 431.746 108.2C430.846 106.1 429.916 104.06 428.956 102.08C427.996 100.1 427.036 98.21 426.076 96.41C425.716 95.81 425.386 95.18 425.086 94.52C424.786 93.8 424.546 93.11 424.366 92.45C424.186 91.73 424.126 91.01 424.186 90.29C424.246 89.57 424.516 88.85 424.996 88.13C425.476 87.23 426.106 86.6 426.886 86.24C427.666 85.82 428.476 85.64 429.316 85.7C430.216 85.7 431.056 85.88 431.836 86.24C432.616 86.6 433.246 87.08 433.726 87.68C434.746 88.76 435.556 89.96 436.156 91.28C436.756 92.6 437.326 93.95 437.866 95.33C439.006 97.73 440.176 100.25 441.376 102.89C442.576 105.53 443.776 108.11 444.976 110.63L449.656 100.73C450.136 99.77 450.556 98.84 450.916 97.94C451.336 97.04 451.756 96.17 452.176 95.33C452.656 94.31 453.106 93.26 453.526 92.18C454.006 91.1 454.546 90.11 455.146 89.21C455.266 88.97 455.386 88.76 455.506 88.58C455.626 88.4 455.746 88.19 455.866 87.95C456.406 87.23 456.886 86.66 457.306 86.24C457.606 86 457.846 85.82 458.026 85.7C458.266 85.52 458.536 85.4 458.836 85.34C459.256 85.22 459.646 85.16 460.006 85.16C460.426 85.1 460.816 85.1 461.176 85.16C461.776 85.34 462.496 85.61 463.336 85.97C464.236 86.33 464.926 86.96 465.406 87.86ZM498.063 117.2C498.963 117.2 499.953 117.23 501.033 117.29C502.173 117.29 503.253 117.38 504.273 117.56C505.353 117.68 506.313 117.92 507.153 118.28C508.053 118.64 508.683 119.12 509.043 119.72C509.943 121.28 510.213 122.69 509.853 123.95C509.553 125.15 508.893 126.08 507.873 126.74C506.793 127.52 505.533 128.03 504.093 128.27C502.653 128.57 501.333 128.69 500.133 128.63C497.673 128.51 495.063 128.48 492.303 128.54C489.543 128.66 486.933 128.75 484.473 128.81C483.633 128.81 482.733 128.81 481.773 128.81C480.873 128.87 480.003 128.81 479.163 128.63C478.323 128.51 477.513 128.24 476.733 127.82C476.013 127.4 475.383 126.74 474.843 125.84C474.123 124.7 473.943 123.56 474.303 122.42C474.723 121.22 475.203 120.11 475.743 119.09C476.583 117.59 477.573 116.12 478.713 114.68C479.913 113.24 480.933 112.01 481.773 110.99L493.023 96.23L483.933 96.5C483.213 96.5 482.433 96.5 481.593 96.5C480.813 96.5 480.003 96.44 479.163 96.32C478.323 96.14 477.543 95.93 476.823 95.69C476.103 95.45 475.473 95.09 474.933 94.61C474.393 94.07 474.003 93.47 473.763 92.81C473.523 92.09 473.403 91.37 473.403 90.65C473.463 89.93 473.613 89.24 473.853 88.58C474.153 87.86 474.543 87.23 475.023 86.69C475.383 86.33 475.833 86.03 476.373 85.79C476.973 85.55 477.633 85.37 478.353 85.25C479.073 85.13 479.793 85.07 480.513 85.07C481.293 85.01 482.013 84.98 482.673 84.98C483.993 84.98 485.463 84.98 487.083 84.98C488.703 84.98 490.263 84.98 491.763 84.98C493.323 84.92 494.763 84.89 496.083 84.89C497.463 84.83 498.573 84.8 499.413 84.8C500.493 84.8 501.573 84.77 502.653 84.71C503.733 84.65 504.753 84.74 505.713 84.98C506.673 85.22 507.483 85.67 508.143 86.33C508.863 86.93 509.313 87.92 509.493 89.3C509.613 90.2 509.553 91.1 509.313 92C509.133 92.84 508.803 93.68 508.323 94.52C507.903 95.3 507.393 96.11 506.793 96.95C506.193 97.73 505.593 98.48 504.993 99.2L491.043 117.2H498.063Z" fill="#9A34FF"/>
</g>
<defs>
<clipPath id="clip0_2008_7">
<rect width="584" height="201" fill="white"/>
</clipPath>
</defs>
</svg>
